<?xml version="1.0" encoding="UTF-8"?><svg id="b" xmlns="http://www.w3.org/2000/svg" xmlns:xlink="http://www.w3.org/1999/xlink" viewBox="0 0 250 250"><defs><style>.r{fill:url(#j);}.s{fill:url(#p);}.t{fill:url(#m);}.u{fill:url(#h);}.v{fill:url(#i);}.w{fill:url(#l);}.x{fill:url(#q);}.y{fill:url(#f);}.z{fill:url(#g);}.aa{fill:url(#n);}.ab{fill:url(#e);}.ac{fill:url(#o);}.ad{fill:url(#d);}.ae{fill:url(#c);}.af{fill:url(#k);}</style><linearGradient id="c" x1="125" y1="74.37" x2="125" y2="182.73" gradientUnits="userSpaceOnUse"><stop offset=".25" stop-color="#f5eb12"/><stop offset="1" stop-color="#ea8024"/></linearGradient><linearGradient id="d" x1="125" y1="10.79" x2="125" y2="64.97" gradientUnits="userSpaceOnUse"><stop offset=".7" stop-color="#f5eb12"/><stop offset="1" stop-color="#ea8024"/></linearGradient><linearGradient id="e" x1="2141.19" y1="1413.93" x2="2141.19" y2="1450.23" gradientTransform="translate(-2016.19 -1220.13)" xlink:href="#d"/><linearGradient id="f" x1="1220.21" y1="1941.36" x2="1220.21" y2="1977.65" gradientTransform="translate(-1030.76 -1778.59)" xlink:href="#d"/><linearGradient id="g" x1="233.63" y1="1550.15" x2="233.63" y2="1586.44" gradientTransform="translate(-28.26 -1457.13)" xlink:href="#d"/><linearGradient id="h" x1="-75.63" y1="534.9" x2="-75.63" y2="571.19" gradientTransform="translate(236.4 -497.81)" xlink:href="#d"/><linearGradient id="i" x1="525.3" y1="-339.9" x2="525.3" y2="-303.6" gradientTransform="translate(-436.07 376.98)" xlink:href="#d"/><linearGradient id="j" x1="1583.92" y1="-415.49" x2="1583.92" y2="-379.2" gradientTransform="translate(-1539.29 508.51)" xlink:href="#d"/><linearGradient id="k" x1="2303.06" y1="365.04" x2="2303.06" y2="401.33" gradientTransform="translate(-2242.51 -202.27)" xlink:href="#d"/><linearGradient id="l" x1="858.58" y1="-150.25" x2="858.58" y2="-96.07" gradientTransform="translate(-805.02 195.45)" xlink:href="#d"/><linearGradient id="m" x1="1441.86" y1="322.87" x2="1441.86" y2="377.05" gradientTransform="translate(-1405.96 -200.35)" xlink:href="#d"/><linearGradient id="n" x1="1435.64" y1="1073.89" x2="1435.64" y2="1128.07" gradientTransform="translate(-1350.29 -889.37)" xlink:href="#d"/><linearGradient id="o" x1="844.58" y1="1537.27" x2="844.58" y2="1591.46" gradientTransform="translate(-679.93 -1352.76)" xlink:href="#d"/><linearGradient id="p" x1="113.78" y1="1364.09" x2="113.78" y2="1418.27" gradientTransform="translate(100.32 -1241.57)" xlink:href="#d"/><linearGradient id="q" x1="-206.47" y1="684.74" x2="-206.47" y2="738.92" gradientTransform="translate(402.91 -639.54)" xlink:href="#d"/></defs><circle class="ae" cx="125" cy="129.99" r="54.18"/><rect class="ad" x="120.97" y="11.52" width="8.05" height="54.18"/><rect class="ab" x="120.97" y="194.29" width="8.05" height="36.29" transform="translate(250 424.87) rotate(-180)"/><rect class="y" x="185.43" y="163.25" width="8.05" height="36.29" transform="translate(449.4 146.37) rotate(128.57)"/><rect class="z" x="201.35" y="93.5" width="8.05" height="36.29" transform="translate(268.52 -113.42) rotate(77.14)"/><rect class="u" x="156.74" y="37.57" width="8.05" height="36.29" transform="translate(40.1 -64.24) rotate(25.71)"/><rect class="v" x="85.2" y="37.57" width="8.05" height="36.29" transform="translate(-15.34 44.23) rotate(-25.71)"/><rect class="r" x="40.6" y="93.5" width="8.05" height="36.29" transform="translate(-74.15 130.31) rotate(-77.14)"/><rect class="af" x="56.52" y="163.25" width="8.05" height="36.29" transform="translate(-43.53 341.83) rotate(-128.57)"/><rect class="w" x="49.52" y="45.92" width="8.05" height="54.18" transform="translate(-36.92 69.36) rotate(-51.43)"/><rect class="t" x="31.88" y="123.24" width="8.05" height="54.18" transform="translate(-102.66 218.78) rotate(-102.86)"/><rect class="aa" x="81.32" y="185.24" width="8.05" height="54.18" transform="translate(70.12 440.66) rotate(-154.29)"/><rect class="ac" x="160.62" y="185.24" width="8.05" height="54.18" transform="translate(405.12 332.19) rotate(154.29)"/><rect class="s" x="210.07" y="123.24" width="8.05" height="54.18" transform="translate(408.29 -24.95) rotate(102.86)"/><rect class="x" x="192.42" y="45.92" width="8.05" height="54.18" transform="translate(131.05 -126.1) rotate(51.43)"/></svg>