<?xml version="1.0" encoding="UTF-8"?><svg id="b" xmlns="http://www.w3.org/2000/svg" xmlns:xlink="http://www.w3.org/1999/xlink" viewBox="0 0 250 250"><defs><style>.r{fill:url(#j);}.s{fill:url(#p);}.t{fill:url(#m);}.u{fill:url(#h);}.v{fill:url(#i);}.w{fill:url(#l);}.x{fill:url(#q);}.y{fill:url(#f);}.z{fill:url(#g);}.aa{fill:url(#n);}.ab{fill:url(#e);}.ac{fill:url(#o);}.ad{fill:url(#d);}.ae{fill:#808285;}.af{fill:url(#c);}.ag{fill:url(#k);}</style><linearGradient id="c" x1="107.23" y1="79.76" x2="107.23" y2="174.76" gradientUnits="userSpaceOnUse"><stop offset=".25" stop-color="#f5eb12"/><stop offset="1" stop-color="#ea8024"/></linearGradient><linearGradient id="d" x1="107.23" y1="24.03" x2="107.23" y2="71.53" gradientUnits="userSpaceOnUse"><stop offset=".7" stop-color="#f5eb12"/><stop offset="1" stop-color="#ea8024"/></linearGradient><linearGradient id="e" x1="1109.59" y1="1427.86" x2="1109.59" y2="1459.68" gradientTransform="translate(-1002.35 -1243.39)" xlink:href="#d"/><linearGradient id="f" x1="378.32" y1="1558.41" x2="378.32" y2="1590.22" gradientTransform="translate(-214.58 -1401.15)" xlink:href="#d"/><linearGradient id="g" x1="-179.68" y1="1068.08" x2="-179.68" y2="1099.89" gradientTransform="translate(357.38 -971.96)" xlink:href="#d"/><linearGradient id="h" x1="-144.24" y1="326.1" x2="-144.24" y2="357.91" gradientTransform="translate(282.83 -279.02)" xlink:href="#d"/><linearGradient id="i" x1="457.97" y1="-108.81" x2="457.97" y2="-76.99" gradientTransform="translate(-382.09 155.88)" xlink:href="#d"/><linearGradient id="j" x1="1173.46" y1="90.86" x2="1173.46" y2="122.67" gradientTransform="translate(-1136.69 5.26)" xlink:href="#d"/><linearGradient id="k" x1="1463.46" y1="774.74" x2="1463.46" y2="806.55" gradientTransform="translate(-1412.73 -617.48)" xlink:href="#d"/><linearGradient id="l" x1="651.09" y1="259.86" x2="651.09" y2="307.36" gradientTransform="translate(-606.5 -205.67)" xlink:href="#d"/><linearGradient id="m" x1="805.81" y1="832.1" x2="805.81" y2="879.6" gradientTransform="translate(-776.68 -710.13)" xlink:href="#d"/><linearGradient id="n" x1="454.87" y1="1309.85" x2="454.87" y2="1357.35" gradientTransform="translate(-382.4 -1133.52)" xlink:href="#d"/><linearGradient id="o" x1="-137.46" y1="1333.34" x2="-137.46" y2="1380.85" gradientTransform="translate(279.45 -1157.02)" xlink:href="#d"/><linearGradient id="p" x1="-525.13" y1="884.9" x2="-525.13" y2="932.4" gradientTransform="translate(710.48 -762.92)" xlink:href="#d"/><linearGradient id="q" x1="-416.24" y1="302.19" x2="-416.24" y2="349.7" gradientTransform="translate(586.11 -248)" xlink:href="#d"/></defs><g><circle class="af" cx="107.23" cy="128.53" r="47.5"/><rect class="ad" x="103.7" y="24.66" width="7.06" height="47.5"/><rect class="ab" x="103.7" y="184.9" width="7.06" height="31.82" transform="translate(214.47 401.61) rotate(-180)"/><rect class="y" x="160.21" y="157.68" width="7.06" height="31.82" transform="translate(401.56 153.81) rotate(128.57)"/><rect class="z" x="174.17" y="96.54" width="7.06" height="31.82" transform="translate(247.78 -85.82) rotate(77.14)"/><rect class="u" x="135.06" y="47.5" width="7.06" height="31.82" transform="translate(41.24 -53.85) rotate(25.71)"/><rect class="v" x="72.34" y="47.5" width="7.06" height="31.82" transform="translate(-20 39.2) rotate(-25.71)"/><rect class="r" x="33.24" y="96.54" width="7.06" height="31.82" transform="translate(-81.04 123.27) rotate(-77.14)"/><rect class="ag" x="47.2" y="157.68" width="7.06" height="31.82" transform="translate(-53.37 321.49) rotate(-128.57)"/><rect class="w" x="41.06" y="54.83" width="7.06" height="47.5" transform="translate(-44.64 64.45) rotate(-51.43)"/><rect class="t" x="25.59" y="122.61" width="7.06" height="47.5" transform="translate(-107.08 207.32) rotate(-102.86)"/><rect class="aa" x="68.94" y="176.96" width="7.06" height="47.5" transform="translate(50.68 412.99) rotate(-154.29)"/><rect class="ac" x="138.47" y="176.96" width="7.06" height="47.5" transform="translate(357.02 319.94) rotate(154.29)"/><rect class="s" x="181.81" y="122.61" width="7.06" height="47.5" transform="translate(369.28 -1.77) rotate(102.86)"/><rect class="x" x="166.34" y="54.83" width="7.06" height="47.5" transform="translate(125.39 -103.23) rotate(51.43)"/></g><path class="ae" d="m223.65,165.83c1.04-3.07,1.61-6.35,1.61-9.77,0-16.83-13.65-30.48-30.48-30.48-3.72,0-7.28.67-10.57,1.89-4.29-11.64-15.48-19.94-28.61-19.94s-25.39,9.13-29.18,21.66c-4.28-2.3-9.18-3.6-14.38-3.6-16.83,0-30.48,13.65-30.48,30.48,0,3.88.73,7.59,2.06,11.01-10.59,4.78-17.96,15.42-17.96,27.79,0,16.83,13.65,30.48,30.48,30.48,7.46,0,14.28-2.68,19.58-7.13,5.3,4.45,12.12,7.13,19.58,7.13s13.67-2.45,18.85-6.54c5.19,4.09,11.73,6.54,18.85,6.54,7.98,0,15.23-3.07,20.67-8.08,5.43,5.02,12.69,8.08,20.67,8.08,16.83,0,30.48-13.65,30.48-30.48,0-13.58-8.89-25.09-21.17-29.03Z"/></svg>