<?xml version="1.0" encoding="UTF-8"?><svg id="b" xmlns="http://www.w3.org/2000/svg" xmlns:xlink="http://www.w3.org/1999/xlink" viewBox="0 0 250 250"><defs><style>.r{fill:url(#j);}.s{fill:url(#p);}.t{fill:url(#m);}.u{fill:url(#h);}.v{fill:url(#i);}.w{fill:url(#l);}.x{fill:url(#q);}.y{fill:url(#f);}.z{fill:url(#g);}.aa{fill:url(#n);}.ab{fill:url(#e);}.ac{fill:url(#o);}.ad{fill:url(#d);}.ae{fill:#808285;}.af{fill:url(#c);}.ag{fill:url(#k);}.ah{fill:#58595b;}</style><linearGradient id="c" x1="121.69" y1="82.72" x2="121.69" y2="163" gradientUnits="userSpaceOnUse"><stop offset=".25" stop-color="#f5eb12"/><stop offset="1" stop-color="#ea8024"/></linearGradient><linearGradient id="d" x1="121.69" y1="35.62" x2="121.69" y2="75.76" gradientUnits="userSpaceOnUse"><stop offset=".7" stop-color="#f5eb12"/><stop offset="1" stop-color="#ea8024"/></linearGradient><linearGradient id="e" x1="570.44" y1="1446.19" x2="570.44" y2="1473.08" gradientTransform="translate(-448.75 -1274.99)" xlink:href="#d"/><linearGradient id="f" x1="-60.2" y1="1358.6" x2="-60.2" y2="1385.48" gradientTransform="translate(229.65 -1210.39)" xlink:href="#d"/><linearGradient id="g" x1="-384.92" y1="810.92" x2="-384.92" y2="837.81" gradientTransform="translate(566.15 -714.39)" xlink:href="#d"/><linearGradient id="h" x1="-159.18" y1="215.58" x2="-159.18" y2="242.47" gradientTransform="translate(307.38 -160.48)" xlink:href="#d"/><linearGradient id="i" x1="447.01" y1="20.88" x2="447.01" y2="47.77" gradientTransform="translate(-351.82 34.22)" xlink:href="#d"/><linearGradient id="j" x1="977.2" y1="373.43" x2="977.2" y2="400.31" gradientTransform="translate(-915.05 -276.89)" xlink:href="#d"/><linearGradient id="k" x1="1032.13" y1="1007.75" x2="1032.13" y2="1034.64" gradientTransform="translate(-958.18 -859.55)" xlink:href="#d"/><linearGradient id="l" x1="564.93" y1="489.6" x2="564.93" y2="529.74" gradientTransform="translate(-496.17 -428.49)" xlink:href="#d"/><linearGradient id="m" x1="486.35" y1="1119.18" x2="486.35" y2="1159.32" gradientTransform="translate(-430.66 -1000.8)" xlink:href="#d"/><linearGradient id="n" x1="-54.87" y1="1450.29" x2="-54.87" y2="1490.43" gradientTransform="translate(147.19 -1285.97)" xlink:href="#d"/><linearGradient id="o" x1="-651.19" y1="1233.59" x2="-651.19" y2="1273.73" gradientTransform="translate(802.25 -1069.27)" xlink:href="#d"/><linearGradient id="p" x1="-853.56" y1="632.26" x2="-853.56" y2="672.39" gradientTransform="translate(1041.25 -513.87)" xlink:href="#d"/><linearGradient id="q" x1="-509.59" y1="99.11" x2="-509.59" y2="139.25" gradientTransform="translate(684.22 -38)" xlink:href="#d"/></defs><g><circle class="af" cx="121.69" cy="123.93" r="40.14"/><rect class="ad" x="118.71" y="36.16" width="5.97" height="40.14"/><rect class="ab" x="118.71" y="171.56" width="5.97" height="26.89" transform="translate(243.39 370) rotate(-180)"/><rect class="y" x="166.46" y="148.56" width="5.97" height="26.89" transform="translate(401.75 130.54) rotate(128.57)"/><rect class="z" x="178.25" y="96.89" width="5.97" height="26.89" transform="translate(248.48 -90.91) rotate(77.14)"/><rect class="u" x="145.21" y="55.46" width="5.97" height="26.89" transform="translate(44.57 -57.48) rotate(25.71)"/><rect class="v" x="92.21" y="55.46" width="5.97" height="26.89" transform="translate(-20.47 48.13) rotate(-25.71)"/><rect class="r" x="59.17" y="96.89" width="5.97" height="26.89" transform="translate(-59.25 146.38) rotate(-77.14)"/><rect class="ag" x="70.96" y="148.56" width="5.97" height="26.89" transform="translate(-6.62 320.83) rotate(-128.57)"/><rect class="w" x="65.78" y="61.65" width="5.97" height="40.14" transform="translate(-38 84.53) rotate(-51.43)"/><rect class="t" x="52.71" y="118.92" width="5.97" height="40.14" transform="translate(-67.43 224.22) rotate(-102.86)"/><rect class="aa" x="89.34" y="164.85" width="5.97" height="40.14" transform="translate(95.26 391.59) rotate(-154.29)"/><rect class="ac" x="148.08" y="164.85" width="5.97" height="40.14" transform="translate(367.41 285.99) rotate(154.29)"/><rect class="s" x="184.71" y="118.92" width="5.97" height="40.14" transform="translate(364.97 -13.07) rotate(102.86)"/><rect class="x" x="171.64" y="61.65" width="5.97" height="40.14" transform="translate(129.64 -105.76) rotate(51.43)"/></g><path class="ah" d="m138.88,138.49c.87-2.57,1.35-5.32,1.35-8.19,0-14.1-11.43-25.54-25.54-25.54-3.12,0-6.1.56-8.86,1.58-3.59-9.75-12.97-16.71-23.97-16.71s-21.28,7.65-24.45,18.14c-3.59-1.92-7.69-3.02-12.05-3.02-14.1,0-25.54,11.43-25.54,25.54,0,3.25.61,6.36,1.72,9.22-8.87,4-15.05,12.92-15.05,23.28,0,14.1,11.43,25.54,25.54,25.54,6.25,0,11.97-2.25,16.4-5.97,4.44,3.72,10.16,5.97,16.4,5.97s11.45-2.05,15.8-5.48c4.35,3.43,9.83,5.48,15.8,5.48,6.68,0,12.76-2.57,17.32-6.77,4.55,4.2,10.63,6.77,17.32,6.77,14.1,0,25.54-11.43,25.54-25.54,0-11.38-7.45-21.02-17.73-24.32Z"/><path class="ae" d="m225.61,163.56c.88-2.59,1.36-5.37,1.36-8.26,0-14.22-11.53-25.76-25.76-25.76-3.14,0-6.15.56-8.94,1.59-3.62-9.84-13.08-16.85-24.17-16.85s-21.46,7.71-24.66,18.3c-3.62-1.94-7.76-3.04-12.15-3.04-14.22,0-25.76,11.53-25.76,25.76,0,3.28.62,6.41,1.74,9.3-8.95,4.04-15.18,13.03-15.18,23.48,0,14.22,11.53,25.76,25.76,25.76,6.3,0,12.07-2.27,16.54-6.02,4.48,3.76,10.24,6.02,16.54,6.02s11.55-2.07,15.93-5.53c4.38,3.46,9.91,5.53,15.93,5.53,6.74,0,12.87-2.59,17.46-6.83,4.59,4.24,10.72,6.83,17.46,6.83,14.22,0,25.76-11.53,25.76-25.76,0-11.48-7.51-21.2-17.89-24.53Z"/></svg>