<?xml version="1.0" encoding="UTF-8"?><svg id="b" xmlns="http://www.w3.org/2000/svg" xmlns:xlink="http://www.w3.org/1999/xlink" viewBox="0 0 250 250"><defs><style>.r{fill:url(#j);}.s{fill:url(#p);}.t{fill:url(#m);}.u{fill:url(#h);}.v{fill:url(#i);}.w{fill:url(#l);}.x{fill:url(#q);}.y{fill:url(#f);}.z{fill:url(#g);}.aa{fill:url(#n);}.ab{fill:none;stroke:#231f20;stroke-miterlimit:10;stroke-width:16.14px;}.ac{fill:url(#e);}.ad{fill:url(#o);}.ae{fill:url(#d);}.af{fill:#808285;}.ag{fill:url(#c);}.ah{fill:url(#k);}</style><linearGradient id="c" x1="111.6" y1="80.15" x2="111.6" y2="174.77" gradientUnits="userSpaceOnUse"><stop offset=".25" stop-color="#f5eb12"/><stop offset="1" stop-color="#ea8024"/></linearGradient><linearGradient id="d" x1="111.6" y1="24.64" x2="111.6" y2="71.95" gradientUnits="userSpaceOnUse"><stop offset=".7" stop-color="#f5eb12"/><stop offset="1" stop-color="#ea8024"/></linearGradient><linearGradient id="e" x1="55.85" y1="1428.02" x2="55.85" y2="1459.71" gradientTransform="translate(55.74 -1243.59)" xlink:href="#d"/><linearGradient id="f" x1="-476.07" y1="1145.02" x2="-476.07" y2="1176.71" gradientTransform="translate(643.95 -987.68)" xlink:href="#d"/><linearGradient id="g" x1="-586.46" y1="552.69" x2="-586.46" y2="584.38" gradientTransform="translate(768.24 -456.26)" xlink:href="#d"/><linearGradient id="h" x1="-192.18" y1="97.08" x2="-192.18" y2="128.77" gradientTransform="translate(335.01 -49.48)" xlink:href="#d"/><linearGradient id="i" x1="409.85" y1="121.26" x2="409.85" y2="152.95" gradientTransform="translate(-329.49 -73.67)" xlink:href="#d"/><linearGradient id="j" x1="766.31" y1="607.04" x2="766.31" y2="638.73" gradientTransform="translate(-724.9 -510.6)" xlink:href="#d"/><linearGradient id="k" x1="608.77" y1="1188.6" x2="608.77" y2="1220.29" gradientTransform="translate(-553.45 -1031.26)" xlink:href="#d"/><linearGradient id="l" x1="456.12" y1="674.02" x2="456.12" y2="721.33" gradientTransform="translate(-406.91 -619.34)" xlink:href="#d"/><linearGradient id="m" x1="163.21" y1="1348.26" x2="163.21" y2="1395.57" gradientTransform="translate(-129.41 -1226.07)" xlink:href="#d"/><linearGradient id="n" x1="-546.56" y1="1539.64" x2="-546.56" y2="1586.95" gradientTransform="translate(623.53 -1363.31)" xlink:href="#d"/><linearGradient id="o" x1="-1138.71" y1="1104.05" x2="-1138.71" y2="1151.36" gradientTransform="translate(1284.93 -927.72)" xlink:href="#d"/><linearGradient id="p" x1="-1167.36" y1="369.49" x2="-1167.36" y2="416.8" gradientTransform="translate(1356.75 -247.3)" xlink:href="#d"/><linearGradient id="q" x1="-610.92" y1="-110.89" x2="-610.92" y2="-63.58" gradientTransform="translate(784.9 165.57)" xlink:href="#d"/></defs><g><circle class="ag" cx="111.6" cy="128.72" r="47.31"/><rect class="ae" x="108.08" y="25.27" width="7.03" height="47.31"/><rect class="ac" x="108.08" y="184.86" width="7.03" height="31.69" transform="translate(223.19 401.41) rotate(-180)"/><rect class="y" x="164.36" y="157.76" width="7.03" height="31.69" transform="translate(408.27 150.59) rotate(128.57)"/><rect class="z" x="178.26" y="96.86" width="7.03" height="31.69" transform="translate(251.2 -89.6) rotate(77.14)"/><rect class="u" x="139.31" y="48.02" width="7.03" height="31.69" transform="translate(41.85 -55.65) rotate(25.71)"/><rect class="v" x="76.85" y="48.02" width="7.03" height="31.69" transform="translate(-19.75 41.19) rotate(-25.71)"/><rect class="r" x="37.9" y="96.86" width="7.03" height="31.69" transform="translate(-77.68 128) rotate(-77.14)"/><rect class="ah" x="51.8" y="157.76" width="7.03" height="31.69" transform="translate(-45.93 325.09) rotate(-128.57)"/><rect class="w" x="45.69" y="55.31" width="7.03" height="47.31" transform="translate(-43.21 68.2) rotate(-51.43)"/><rect class="t" x="30.28" y="122.82" width="7.03" height="47.31" transform="translate(-101.48 212.02) rotate(-102.86)"/><rect class="aa" x="73.46" y="176.96" width="7.03" height="47.31" transform="translate(59.28 414.76) rotate(-154.29)"/><rect class="ad" x="142.7" y="176.96" width="7.03" height="47.31" transform="translate(365 317.92) rotate(154.29)"/><rect class="s" x="185.87" y="122.82" width="7.03" height="47.31" transform="translate(374.34 -5.57) rotate(102.86)"/><rect class="x" x="170.47" y="55.31" width="7.03" height="47.31" transform="translate(127.25 -106.29) rotate(51.43)"/></g><path class="af" d="m215.95,155.67c1.03-3.06,1.6-6.33,1.6-9.73,0-16.77-13.59-30.36-30.36-30.36-3.7,0-7.25.67-10.53,1.88-4.27-11.59-15.42-19.86-28.49-19.86s-25.29,9.09-29.06,21.57c-4.27-2.29-9.14-3.59-14.32-3.59-16.77,0-30.36,13.59-30.36,30.36,0,3.87.73,7.56,2.05,10.96-10.55,4.76-17.89,15.36-17.89,27.68,0,16.77,13.59,30.36,30.36,30.36,7.43,0,14.23-2.67,19.5-7.1,5.28,4.43,12.08,7.1,19.5,7.1s13.61-2.44,18.78-6.51c5.17,4.08,11.69,6.51,18.78,6.51,7.94,0,15.17-3.06,20.58-8.05,5.41,5,12.64,8.05,20.58,8.05,16.77,0,30.36-13.59,30.36-30.36,0-13.53-8.85-24.99-21.08-28.91Z"/><g><line class="ab" x1="147.81" y1="127.99" x2="147.81" y2="184.54"/><line class="ab" x1="176.09" y1="156.26" x2="119.54" y2="156.26"/></g></svg>