<?xml version="1.0" encoding="UTF-8"?><svg id="b" xmlns="http://www.w3.org/2000/svg" xmlns:xlink="http://www.w3.org/1999/xlink" viewBox="0 0 250 250"><defs><style>.r{fill:url(#j);}.s{fill:url(#p);}.t{fill:url(#m);}.u{fill:none;stroke:#231f20;stroke-miterlimit:10;stroke-width:16.02px;}.v{fill:url(#h);}.w{fill:url(#i);}.x{fill:url(#l);}.y{fill:url(#q);}.z{fill:url(#f);}.aa{fill:url(#g);}.ab{fill:url(#n);}.ac{fill:url(#e);}.ad{fill:url(#o);}.ae{fill:url(#d);}.af{fill:#808285;}.ag{fill:url(#c);}.ah{fill:url(#k);}</style><linearGradient id="c" x1="107.43" y1="80.26" x2="107.43" y2="174.22" gradientUnits="userSpaceOnUse"><stop offset=".25" stop-color="#f5eb12"/><stop offset="1" stop-color="#ea8024"/></linearGradient><linearGradient id="d" x1="107.43" y1="25.14" x2="107.43" y2="72.12" gradientUnits="userSpaceOnUse"><stop offset=".7" stop-color="#f5eb12"/><stop offset="1" stop-color="#ea8024"/></linearGradient><linearGradient id="e" x1="-464.67" y1="1428.87" x2="-464.67" y2="1460.34" gradientTransform="translate(572.1 -1245.05)" xlink:href="#d"/><linearGradient id="f" x1="-899.56" y1="943.93" x2="-899.56" y2="975.4" gradientTransform="translate(1062.88 -787.02)" xlink:href="#d"/><linearGradient id="g" x1="-791.57" y1="301.55" x2="-791.57" y2="333.02" gradientTransform="translate(968.69 -205.12)" xlink:href="#d"/><linearGradient id="h" x1="-222.02" y1="-14.53" x2="-222.02" y2="16.94" gradientTransform="translate(360.46 62.46)" xlink:href="#d"/><linearGradient id="i" x1="380.22" y1="233.69" x2="380.22" y2="265.16" gradientTransform="translate(-303.81 -185.76)" xlink:href="#d"/><linearGradient id="j" x1="561.64" y1="859.31" x2="561.64" y2="890.78" gradientTransform="translate(-523.9 -762.88)" xlink:href="#d"/><linearGradient id="k" x1="185.63" y1="1391.21" x2="185.63" y2="1422.68" gradientTransform="translate(-134.09 -1234.31)" xlink:href="#d"/><linearGradient id="l" x1="354.92" y1="876.46" x2="354.92" y2="923.44" gradientTransform="translate(-309.44 -821.49)" xlink:href="#d"/><linearGradient id="m" x1="-156.36" y1="1600.75" x2="-156.36" y2="1647.72" gradientTransform="translate(186.54 -1478.74)" xlink:href="#d"/><linearGradient id="n" x1="-1041.41" y1="1652.6" x2="-1041.41" y2="1699.58" gradientTransform="translate(1114.46 -1476.83)" xlink:href="#d"/><linearGradient id="o" x1="-1633.77" y1="992.96" x2="-1633.77" y2="1039.94" gradientTransform="translate(1775.58 -817.2)" xlink:href="#d"/><linearGradient id="p" x1="-1487.37" y1="118.57" x2="-1487.37" y2="165.55" gradientTransform="translate(1672.06 3.44)" xlink:href="#d"/><linearGradient id="q" x1="-712.47" y1="-312.16" x2="-712.47" y2="-265.18" gradientTransform="translate(881.85 367.13)" xlink:href="#d"/></defs><g><circle class="ag" cx="107.43" cy="128.49" r="46.98"/><rect class="ae" x="103.94" y="25.76" width="6.98" height="46.98"/><rect class="ac" x="103.94" y="184.24" width="6.98" height="31.47" transform="translate(214.86 399.94) rotate(-180)"/><rect class="z" x="159.83" y="157.32" width="6.98" height="31.47" transform="translate(400.45 153.27) rotate(128.57)"/><rect class="aa" x="173.63" y="96.85" width="6.98" height="31.47" transform="translate(247.47 -85.15) rotate(77.14)"/><rect class="v" x="134.95" y="48.35" width="6.98" height="31.47" transform="translate(41.52 -53.72) rotate(25.71)"/><rect class="w" x="72.92" y="48.35" width="6.98" height="31.47" transform="translate(-20.24 39.5) rotate(-25.71)"/><rect class="r" x="34.25" y="96.85" width="6.98" height="31.47" transform="translate(-80.42 124.33) rotate(-77.14)"/><rect class="ah" x="48.05" y="157.32" width="6.98" height="31.47" transform="translate(-51.62 321.26) rotate(-128.57)"/><rect class="x" x="41.99" y="55.6" width="6.98" height="46.98" transform="translate(-44.71 65.33) rotate(-51.43)"/><rect class="t" x="26.69" y="122.63" width="6.98" height="46.98" transform="translate(-105.56 208.06) rotate(-102.86)"/><rect class="ab" x="69.56" y="176.39" width="6.98" height="46.98" transform="translate(52.14 411.66) rotate(-154.29)"/><rect class="ad" x="138.32" y="176.39" width="6.98" height="46.98" transform="translate(356.3 318.44) rotate(154.29)"/><rect class="s" x="181.19" y="122.63" width="6.98" height="46.98" transform="translate(368.24 -1.41) rotate(102.86)"/><rect class="y" x="165.89" y="55.6" width="6.98" height="46.98" transform="translate(125.61 -102.65) rotate(51.43)"/></g><path class="af" d="m222.57,165.39c1.03-3.03,1.59-6.28,1.59-9.66,0-16.65-13.5-30.15-30.15-30.15-3.68,0-7.2.66-10.46,1.87-4.24-11.51-15.31-19.72-28.29-19.72s-25.11,9.03-28.86,21.42c-4.24-2.27-9.08-3.56-14.22-3.56-16.65,0-30.15,13.5-30.15,30.15,0,3.84.73,7.51,2.03,10.89-10.47,4.72-17.77,15.25-17.77,27.48,0,16.65,13.5,30.15,30.15,30.15,7.37,0,14.13-2.65,19.36-7.05,5.24,4.4,11.99,7.05,19.36,7.05s13.52-2.42,18.65-6.47c5.13,4.05,11.6,6.47,18.65,6.47,7.89,0,15.07-3.03,20.44-7.99,5.37,4.96,12.55,7.99,20.44,7.99,16.65,0,30.15-13.5,30.15-30.15,0-13.44-8.79-24.81-20.93-28.71Z"/><line class="u" x1="182.98" y1="165.98" x2="126.82" y2="165.98"/></svg>