<?xml version="1.0" encoding="UTF-8"?><svg id="b" xmlns="http://www.w3.org/2000/svg" xmlns:xlink="http://www.w3.org/1999/xlink" viewBox="0 0 250 250"><defs><style>.r{fill:url(#j);}.s{fill:url(#p);}.t{fill:url(#m);}.u{fill:url(#h);}.v{fill:url(#i);}.w{fill:url(#l);}.x{fill:url(#q);}.y{fill:url(#f);}.z{fill:url(#g);}.aa{fill:url(#n);}.ab{fill:url(#e);}.ac{fill:url(#o);}.ad{fill:url(#d);}.ae{fill:#808285;}.af{fill:#2b3990;}.ag{fill:url(#c);}.ah{fill:url(#k);}.ai{fill:#58595b;}</style><linearGradient id="c" x1="122.45" y1="63.64" x2="122.45" y2="145.32" gradientUnits="userSpaceOnUse"><stop offset=".25" stop-color="#f5eb12"/><stop offset="1" stop-color="#ea8024"/></linearGradient><linearGradient id="d" x1="122.45" y1="15.71" x2="122.45" y2="56.56" gradientUnits="userSpaceOnUse"><stop offset=".7" stop-color="#f5eb12"/><stop offset="1" stop-color="#ea8024"/></linearGradient><linearGradient id="e" x1="2668.43" y1="917.34" x2="2668.43" y2="944.7" gradientTransform="translate(-2545.97 -763.67)" xlink:href="#d"/><linearGradient id="f" x1="1842.02" y1="1745.44" x2="1842.02" y2="1772.8" gradientTransform="translate(-1670.98 -1615.17)" xlink:href="#d"/><linearGradient id="g" x1="679.32" y1="1615.64" x2="679.32" y2="1642.99" gradientTransform="translate(-496.28 -1537.94)" xlink:href="#d"/><linearGradient id="h" x1="55.88" y1="625.68" x2="55.88" y2="653.03" gradientTransform="translate(93.53 -590.14)" xlink:href="#d"/><linearGradient id="i" x1="441.15" y1="-478.98" x2="441.15" y2="-451.62" gradientTransform="translate(-345.67 514.51)" xlink:href="#d"/><linearGradient id="j" x1="1545.02" y1="-866.51" x2="1545.02" y2="-839.15" gradientTransform="translate(-1483.16 944.2)" xlink:href="#d"/><linearGradient id="k" x1="2536.25" y1="-245.08" x2="2536.25" y2="-217.73" gradientTransform="translate(-2462.39 375.36)" xlink:href="#d"/><linearGradient id="l" x1="761.46" y1="-446" x2="761.46" y2="-405.16" gradientTransform="translate(-692.86 487.66)" xlink:href="#d"/><linearGradient id="m" x1="1520.86" y1="-234.29" x2="1520.86" y2="-193.44" gradientTransform="translate(-1465.57 334.22)" xlink:href="#d"/><linearGradient id="n" x1="1828.81" y1="491.44" x2="1828.81" y2="532.28" gradientTransform="translate(-1736.25 -344.77)" xlink:href="#d"/><linearGradient id="o" x1="1453.42" y1="1184.69" x2="1453.42" y2="1225.53" gradientTransform="translate(-1301.08 -1038.02)" xlink:href="#d"/><linearGradient id="p" x1="677.36" y1="1323.43" x2="677.36" y2="1364.27" gradientTransform="translate(-487.75 -1223.5)" xlink:href="#d"/><linearGradient id="q" x1="85.02" y1="803.19" x2="85.02" y2="844.03" gradientTransform="translate(91.29 -761.54)" xlink:href="#d"/></defs><g><circle class="ag" cx="122.45" cy="105.57" r="40.84"/><rect class="ad" x="119.42" y="16.26" width="6.07" height="40.84"/><rect class="ab" x="119.42" y="154.04" width="6.07" height="27.36" transform="translate(244.9 335.43) rotate(-180)"/><rect class="y" x="168" y="130.64" width="6.07" height="27.36" transform="translate(390.51 100.57) rotate(128.57)"/><rect class="z" x="180" y="78.06" width="6.07" height="27.36" transform="translate(231.75 -107.12) rotate(77.14)"/><rect class="u" x="146.38" y="35.9" width="6.07" height="27.36" transform="translate(36.31 -59.92) rotate(25.71)"/><rect class="v" x="92.45" y="35.9" width="6.07" height="27.36" transform="translate(-12.05 46.34) rotate(-25.71)"/><rect class="r" x="58.83" y="78.06" width="6.07" height="27.36" transform="translate(-41.34 131.64) rotate(-77.14)"/><rect class="ah" x="70.83" y="130.64" width="6.07" height="27.36" transform="translate(7.09 292.05) rotate(-128.57)"/><rect class="w" x="65.56" y="42.2" width="6.07" height="40.84" transform="translate(-23.13 77.2) rotate(-51.43)"/><rect class="t" x="52.25" y="100.48" width="6.07" height="40.84" transform="translate(-50.27 201.7) rotate(-102.86)"/><rect class="aa" x="89.53" y="147.21" width="6.07" height="40.84" transform="translate(103.22 358.83) rotate(-154.29)"/><rect class="ac" x="149.3" y="147.21" width="6.07" height="40.84" transform="translate(362.33 252.57) rotate(154.29)"/><rect class="s" x="186.58" y="100.48" width="6.07" height="40.84" transform="translate(349.67 -37.06) rotate(102.86)"/><rect class="x" x="173.27" y="42.2" width="6.07" height="40.84" transform="translate(115.34 -114.27) rotate(51.43)"/></g><path class="ai" d="m149.84,115.76c.88-2.62,1.37-5.42,1.37-8.33,0-14.35-11.63-25.99-25.98-25.99-3.17,0-6.21.57-9.02,1.61-3.66-9.92-13.2-17-24.39-17s-21.65,7.78-24.88,18.46c-3.65-1.96-7.82-3.07-12.26-3.07-14.35,0-25.99,11.63-25.99,25.99,0,3.31.63,6.47,1.75,9.38-9.03,4.07-15.31,13.14-15.31,23.69,0,14.35,11.63,25.99,25.99,25.99,6.36,0,12.18-2.29,16.69-6.07,4.52,3.79,10.34,6.07,16.69,6.07s11.65-2.09,16.07-5.58c4.42,3.49,10,5.58,16.07,5.58,6.8,0,12.99-2.62,17.62-6.89,4.63,4.28,10.82,6.89,17.62,6.89,14.35,0,25.98-11.63,25.98-25.99,0-11.58-7.58-21.39-18.04-24.74Z"/><path class="ae" d="m216.82,135.08c.89-2.64,1.38-5.46,1.38-8.4,0-14.47-11.73-26.21-26.21-26.21-3.2,0-6.26.57-9.09,1.62-3.69-10.01-13.31-17.15-24.6-17.15s-21.83,7.85-25.09,18.62c-3.68-1.97-7.89-3.1-12.36-3.1-14.47,0-26.21,11.73-26.21,26.21,0,3.34.63,6.53,1.77,9.46-9.1,4.11-15.45,13.26-15.45,23.89,0,14.47,11.73,26.21,26.21,26.21,6.41,0,12.28-2.3,16.83-6.13,4.55,3.82,10.42,6.13,16.84,6.13s11.75-2.11,16.21-5.62c4.46,3.52,10.09,5.62,16.21,5.62,6.86,0,13.1-2.64,17.77-6.95,4.67,4.31,10.91,6.95,17.77,6.95,14.47,0,26.21-11.73,26.21-26.21,0-11.68-7.64-21.57-18.2-24.96Z"/><path class="af" d="m125.07,211.71c-4.17,6.43-12.77,8.25-19.19,4.08-6.43-4.17-8.25-12.77-4.08-19.19s22.72-23.58,29.15-19.41c6.43,4.17-1.7,28.09-5.87,34.52Z"/><path class="af" d="m159.44,211.71c-4.17,6.43-12.77,8.25-19.19,4.08s-8.25-12.77-4.08-19.19,22.72-23.58,29.15-19.41c6.43,4.17-1.7,28.09-5.87,34.52Z"/><path class="af" d="m193.82,211.71c-4.17,6.43-12.77,8.25-19.19,4.08s-8.25-12.77-4.08-19.19c4.17-6.43,22.72-23.58,29.15-19.41,6.43,4.17-1.7,28.09-5.87,34.52Z"/></svg>