<?xml version="1.0" encoding="UTF-8"?><svg id="b" xmlns="http://www.w3.org/2000/svg" xmlns:xlink="http://www.w3.org/1999/xlink" viewBox="0 0 250 250"><defs><style>.r{fill:url(#j);}.s{fill:url(#p);}.t{fill:url(#m);}.u{fill:url(#h);}.v{fill:url(#i);}.w{fill:url(#l);}.x{fill:url(#q);}.y{fill:url(#f);}.z{fill:url(#g);}.aa{fill:url(#n);}.ab{stroke:#fff;stroke-miterlimit:10;stroke-width:1.32px;}.ab,.ac{fill:#808285;}.ad{fill:url(#e);}.ae{fill:url(#o);}.af{fill:url(#d);}.ag{fill:url(#c);}.ah{fill:url(#k);}.ai{fill:#58595b;}</style><linearGradient id="c" x1="121.64" y1="62.46" x2="121.64" y2="144.15" gradientUnits="userSpaceOnUse"><stop offset=".25" stop-color="#f5eb12"/><stop offset="1" stop-color="#ea8024"/></linearGradient><linearGradient id="d" x1="121.64" y1="14.54" x2="121.64" y2="55.38" gradientUnits="userSpaceOnUse"><stop offset=".7" stop-color="#f5eb12"/><stop offset="1" stop-color="#ea8024"/></linearGradient><linearGradient id="e" x1="1619.87" y1="918.52" x2="1619.87" y2="945.88" gradientTransform="translate(-1498.23 -766.02)" xlink:href="#d"/><linearGradient id="f" x1="989.78" y1="1336.6" x2="989.78" y2="1363.95" gradientTransform="translate(-819.56 -1207.5)" xlink:href="#d"/><linearGradient id="g" x1="270.06" y1="1104.64" x2="270.06" y2="1132" gradientTransform="translate(-87.84 -1028.12)" xlink:href="#d"/><linearGradient id="h" x1="2.68" y1="397.32" x2="2.68" y2="424.67" gradientTransform="translate(145.92 -362.96)" xlink:href="#d"/><linearGradient id="i" x1="388.97" y1="-252.74" x2="388.97" y2="-225.38" gradientTransform="translate(-294.3 287.1)" xlink:href="#d"/><linearGradient id="j" x1="1138.06" y1="-356.03" x2="1138.06" y2="-328.67" gradientTransform="translate(-1077.01 432.55)" xlink:href="#d"/><linearGradient id="k" x1="1685.86" y1="165.23" x2="1685.86" y2="192.59" gradientTransform="translate(-1612.81 -36.13)" xlink:href="#d"/><linearGradient id="l" x1="564.32" y1="-37.16" x2="564.32" y2="3.68" gradientTransform="translate(-496.54 77.64)" xlink:href="#d"/><linearGradient id="m" x1="880.75" y1="276.71" x2="880.75" y2="317.55" gradientTransform="translate(-826.27 -177.96)" xlink:href="#d"/><linearGradient id="n" x1="832.64" y1="719.8" x2="832.64" y2="760.64" gradientTransform="translate(-740.9 -574.31)" xlink:href="#d"/><linearGradient id="o" x1="456.23" y1="958.45" x2="456.23" y2="999.29" gradientTransform="translate(-304.7 -812.96)" xlink:href="#d"/><linearGradient id="p" x1="34.95" y1="812.96" x2="34.95" y2="853.8" gradientTransform="translate(153.84 -714.2)" xlink:href="#d"/><linearGradient id="q" x1="-113.95" y1="392.88" x2="-113.95" y2="433.72" gradientTransform="translate(289.45 -352.4)" xlink:href="#d"/></defs><g><g><circle class="ag" cx="121.64" cy="104.39" r="40.84"/><rect class="af" x="118.6" y="15.08" width="6.07" height="40.84"/><rect class="ad" x="118.6" y="152.86" width="6.07" height="27.36" transform="translate(243.27 333.08) rotate(-180)"/><rect class="y" x="167.19" y="129.46" width="6.07" height="27.36" transform="translate(388.27 99.3) rotate(128.57)"/><rect class="z" x="179.19" y="76.88" width="6.07" height="27.36" transform="translate(229.97 -107.24) rotate(77.14)"/><rect class="u" x="145.56" y="34.72" width="6.07" height="27.36" transform="translate(35.72 -59.68) rotate(25.71)"/><rect class="v" x="91.64" y="34.72" width="6.07" height="27.36" transform="translate(-11.62 45.87) rotate(-25.71)"/><rect class="r" x="58.01" y="76.88" width="6.07" height="27.36" transform="translate(-40.83 129.93) rotate(-77.14)"/><rect class="ah" x="70.01" y="129.46" width="6.07" height="27.36" transform="translate(6.68 289.5) rotate(-128.57)"/><rect class="w" x="64.74" y="41.02" width="6.07" height="40.84" transform="translate(-22.52 76.12) rotate(-51.43)"/><rect class="t" x="51.44" y="99.3" width="6.07" height="40.84" transform="translate(-50.12 199.47) rotate(-102.86)"/><rect class="aa" x="88.71" y="146.04" width="6.07" height="40.84" transform="translate(102.18 356.24) rotate(-154.29)"/><rect class="ae" x="148.49" y="146.04" width="6.07" height="40.84" transform="translate(360.27 250.69) rotate(154.29)"/><rect class="s" x="185.76" y="99.3" width="6.07" height="40.84" transform="translate(347.53 -37.7) rotate(102.86)"/><rect class="x" x="172.46" y="41.02" width="6.07" height="40.84" transform="translate(114.11 -114.07) rotate(51.43)"/></g><path class="ai" d="m139.12,119.21c.88-2.62,1.37-5.42,1.37-8.33,0-14.35-11.63-25.99-25.98-25.99-3.17,0-6.21.57-9.02,1.61-3.66-9.92-13.2-17-24.39-17s-21.65,7.78-24.88,18.46c-3.65-1.96-7.82-3.07-12.26-3.07-14.35,0-25.99,11.63-25.99,25.99,0,3.31.63,6.47,1.75,9.38-9.03,4.07-15.31,13.14-15.31,23.69,0,14.35,11.63,25.99,25.99,25.99,6.36,0,12.18-2.29,16.69-6.07,4.52,3.79,10.34,6.07,16.69,6.07s11.65-2.09,16.07-5.58c4.42,3.49,10,5.58,16.07,5.58,6.8,0,12.99-2.62,17.62-6.89,4.63,4.28,10.82,6.89,17.62,6.89,14.35,0,25.98-11.63,25.98-25.99,0-11.58-7.58-21.39-18.04-24.74Z"/><path class="ac" d="m227.38,144.72c.89-2.64,1.38-5.46,1.38-8.4,0-14.47-11.73-26.21-26.21-26.21-3.2,0-6.26.57-9.09,1.62-3.69-10.01-13.31-17.15-24.6-17.15s-21.83,7.85-25.09,18.62c-3.68-1.97-7.89-3.1-12.36-3.1-14.47,0-26.21,11.73-26.21,26.21,0,3.34.63,6.53,1.77,9.46-9.1,4.11-15.45,13.26-15.45,23.89,0,14.47,11.73,26.21,26.21,26.21,6.41,0,12.28-2.3,16.83-6.13,4.55,3.82,10.42,6.13,16.84,6.13s11.75-2.11,16.21-5.62c4.46,3.52,10.09,5.62,16.21,5.62,6.86,0,13.1-2.64,17.77-6.95,4.67,4.31,10.91,6.95,17.77,6.95,14.47,0,26.21-11.73,26.21-26.21,0-11.68-7.64-21.57-18.2-24.96Z"/></g><path class="ab" d="m73.22,175.98l-6.67,1.79-4.2-2.42v-3.4l4.2-2.42,6.67,1.79.75-2.8-3.87-1.04,3.04-1.76-1.45-2.51-3.04,1.76,1.04-3.87-2.8-.75-1.79,6.67-4.2,2.42-2.95-1.7v-4.85l4.88-4.88-2.05-2.05-2.83,2.83v-3.51h-2.9v3.51l-2.83-2.83-2.05,2.05,4.88,4.88v4.85l-2.95,1.7-4.2-2.42-1.79-6.67-2.8.75,1.04,3.87-3.04-1.76-1.45,2.51,3.04,1.76-3.87,1.04.75,2.8,6.67-1.79,4.2,2.42v3.4l-4.2,2.42-6.67-1.79-.75,2.8,3.87,1.04-3.04,1.76,1.45,2.51,3.04-1.76-1.04,3.87,2.8.75,1.79-6.67,4.2-2.42,2.95,1.7v4.85l-4.88,4.88,2.05,2.05,2.83-2.83v3.51h2.9v-3.51l2.83,2.83,2.05-2.05-4.88-4.88v-4.85l2.95-1.7,4.2,2.42,1.79,6.67,2.8-.75-1.04-3.87,3.04,1.76,1.45-2.51-3.04-1.76,3.87-1.04-.75-2.8Zm-13.77-.64l-2.95,1.7-2.95-1.7v-3.4l2.95-1.7,2.95,1.7v3.4Z"/><path class="ab" d="m108.23,192l-6.67,1.79-4.2-2.42v-3.4l4.2-2.42,6.67,1.79.75-2.8-3.87-1.04,3.04-1.76-1.45-2.51-3.04,1.76,1.04-3.87-2.8-.75-1.79,6.67-4.2,2.42-2.95-1.7v-4.85l4.88-4.88-2.05-2.05-2.83,2.83v-3.51h-2.9v3.51l-2.84-2.83-2.05,2.05,4.89,4.88v4.85l-2.95,1.7-4.2-2.42-1.79-6.67-2.8.75,1.04,3.87-3.04-1.76-1.45,2.51,3.04,1.76-3.87,1.04.75,2.8,6.67-1.79,4.2,2.42v3.4l-4.2,2.42-6.67-1.79-.75,2.8,3.87,1.04-3.04,1.76,1.45,2.51,3.04-1.76-1.04,3.87,2.8.75,1.79-6.67,4.2-2.42,2.95,1.7v4.85l-4.89,4.88,2.05,2.05,2.84-2.83v3.51h2.9v-3.51l2.83,2.83,2.05-2.05-4.88-4.88v-4.85l2.95-1.7,4.2,2.42,1.79,6.67,2.8-.75-1.04-3.87,3.04,1.76,1.45-2.51-3.04-1.76,3.87-1.04-.75-2.8Zm-13.77-.64l-2.95,1.7-2.95-1.7v-3.4l2.95-1.7,2.95,1.7v3.4Z"/><path class="ab" d="m178.02,192l-6.67,1.79-4.2-2.42v-3.4l4.2-2.42,6.67,1.79.75-2.8-3.87-1.04,3.04-1.76-1.45-2.51-3.04,1.76,1.04-3.87-2.8-.75-1.79,6.67-4.2,2.42-2.95-1.7v-4.85l4.88-4.88-2.05-2.05-2.83,2.83v-3.51h-2.9v3.51l-2.84-2.83-2.05,2.05,4.89,4.88v4.85l-2.95,1.7-4.2-2.42-1.79-6.67-2.8.75,1.04,3.87-3.04-1.76-1.45,2.51,3.04,1.76-3.87,1.04.75,2.8,6.67-1.79,4.2,2.42v3.4l-4.2,2.42-6.67-1.79-.75,2.8,3.87,1.04-3.04,1.76,1.45,2.51,3.04-1.76-1.04,3.87,2.8.75,1.79-6.67,4.2-2.42,2.95,1.7v4.85l-4.89,4.88,2.05,2.05,2.84-2.83v3.51h2.9v-3.51l2.83,2.83,2.05-2.05-4.88-4.88v-4.85l2.95-1.7,4.2,2.42,1.79,6.67,2.8-.75-1.04-3.87,3.04,1.76,1.45-2.51-3.04-1.76,3.87-1.04-.75-2.8Zm-13.77-.64l-2.95,1.7-2.95-1.7v-3.4l2.95-1.7,2.95,1.7v3.4Z"/><path class="ab" d="m139.17,204.35l-6.67,1.79-4.2-2.42v-3.4l4.2-2.42,6.67,1.79.75-2.8-3.87-1.04,3.04-1.76-1.45-2.51-3.04,1.76,1.04-3.87-2.8-.75-1.79,6.67-4.2,2.42-2.95-1.7v-4.85l4.88-4.88-2.05-2.05-2.83,2.83v-3.51h-2.9v3.51l-2.84-2.83-2.05,2.05,4.89,4.88v4.85l-2.95,1.7-4.2-2.42-1.79-6.67-2.8.75,1.04,3.87-3.04-1.76-1.45,2.51,3.04,1.76-3.87,1.04.75,2.8,6.67-1.79,4.2,2.42v3.4l-4.2,2.42-6.67-1.79-.75,2.8,3.87,1.04-3.04,1.76,1.45,2.51,3.04-1.76-1.04,3.87,2.8.75,1.79-6.67,4.2-2.42,2.95,1.7v4.85l-4.89,4.88,2.05,2.05,2.84-2.83v3.51h2.9v-3.51l2.83,2.83,2.05-2.05-4.88-4.88v-4.85l2.95-1.7,4.2,2.42,1.79,6.67,2.8-.75-1.04-3.87,3.04,1.76,1.45-2.51-3.04-1.76,3.87-1.04-.75-2.8Zm-13.77-.64l-2.95,1.7-2.95-1.7v-3.4l2.95-1.7,2.95,1.7v3.4Z"/><path class="ab" d="m209.68,204.35l-6.67,1.79-4.2-2.42v-3.4l4.2-2.42,6.67,1.79.75-2.8-3.87-1.04,3.04-1.76-1.45-2.51-3.04,1.76,1.04-3.87-2.8-.75-1.79,6.67-4.2,2.42-2.95-1.7v-4.85l4.88-4.88-2.05-2.05-2.83,2.83v-3.51h-2.9v3.51l-2.84-2.83-2.05,2.05,4.89,4.88v4.85l-2.95,1.7-4.2-2.42-1.79-6.67-2.8.75,1.04,3.87-3.04-1.76-1.45,2.51,3.04,1.76-3.87,1.04.75,2.8,6.67-1.79,4.2,2.42v3.4l-4.2,2.42-6.67-1.79-.75,2.8,3.87,1.04-3.04,1.76,1.45,2.51,3.04-1.76-1.04,3.87,2.8.75,1.79-6.67,4.2-2.42,2.95,1.7v4.85l-4.89,4.88,2.05,2.05,2.84-2.83v3.51h2.9v-3.51l2.83,2.83,2.05-2.05-4.88-4.88v-4.85l2.95-1.7,4.2,2.42,1.79,6.67,2.8-.75-1.04-3.87,3.04,1.76,1.45-2.51-3.04-1.76,3.87-1.04-.75-2.8Zm-13.77-.64l-2.95,1.7-2.95-1.7v-3.4l2.95-1.7,2.95,1.7v3.4Z"/></svg>