<?xml version="1.0" encoding="UTF-8"?><svg id="b" xmlns="http://www.w3.org/2000/svg" xmlns:xlink="http://www.w3.org/1999/xlink" viewBox="0 0 250 250"><defs><style>.r{fill:url(#j);}.s{fill:url(#p);}.t{fill:url(#m);}.u{fill:url(#h);}.v{fill:url(#i);}.w{fill:url(#l);}.x{fill:url(#q);}.y{fill:url(#f);}.z{fill:url(#g);}.aa{fill:url(#n);}.ab{fill:url(#e);}.ac{fill:url(#o);}.ad{fill:url(#d);}.ae{fill:#808285;}.af{fill:#2b3990;}.ag{fill:url(#c);}.ah{fill:#fff200;stroke:#fff;stroke-miterlimit:10;stroke-width:.21px;}.ai{fill:url(#k);}.aj{fill:#58595b;}</style><linearGradient id="c" x1="121.64" y1="56.21" x2="121.64" y2="137.9" gradientUnits="userSpaceOnUse"><stop offset=".25" stop-color="#f5eb12"/><stop offset="1" stop-color="#ea8024"/></linearGradient><linearGradient id="d" x1="121.64" y1="8.29" x2="121.64" y2="49.14" gradientUnits="userSpaceOnUse"><stop offset=".7" stop-color="#f5eb12"/><stop offset="1" stop-color="#ea8024"/></linearGradient><linearGradient id="e" x1="1095.18" y1="924.76" x2="1095.18" y2="952.12" gradientTransform="translate(-973.55 -778.52)" xlink:href="#d"/><linearGradient id="f" x1="558.99" y1="1135.38" x2="558.99" y2="1162.74" gradientTransform="translate(-388.76 -1012.53)" xlink:href="#d"/><linearGradient id="g" x1="60.01" y1="847.48" x2="60.01" y2="874.84" gradientTransform="translate(122.22 -777.21)" xlink:href="#d"/><linearGradient id="h" x1="-26.01" y1="277.86" x2="-26.01" y2="305.22" gradientTransform="translate(174.61 -249.75)" xlink:href="#d"/><linearGradient id="i" x1="365.7" y1="-144.54" x2="365.7" y2="-117.19" gradientTransform="translate(-271.03 172.65)" xlink:href="#d"/><linearGradient id="j" x1="940.18" y1="-101.66" x2="940.18" y2="-74.3" gradientTransform="translate(-879.13 171.93)" xlink:href="#d"/><linearGradient id="k" x1="1264.83" y1="374.23" x2="1264.83" y2="401.59" gradientTransform="translate(-1191.78 -251.38)" xlink:href="#d"/><linearGradient id="l" x1="470.43" y1="164.05" x2="470.43" y2="204.9" gradientTransform="translate(-402.65 -129.82)" xlink:href="#d"/><linearGradient id="m" x1="566.12" y1="533.87" x2="566.12" y2="574.71" gradientTransform="translate(-511.64 -441.36)" xlink:href="#d"/><linearGradient id="n" x1="336.65" y1="839.25" x2="336.65" y2="880.1" gradientTransform="translate(-244.9 -700.01)" xlink:href="#d"/><linearGradient id="o" x1="-45.19" y1="850.25" x2="-45.19" y2="891.09" gradientTransform="translate(196.71 -711)" xlink:href="#d"/><linearGradient id="p" x1="-291.85" y1="558.58" x2="-291.85" y2="599.42" gradientTransform="translate(480.65 -466.07)" xlink:href="#d"/><linearGradient id="q" x1="-217.61" y1="183.87" x2="-217.61" y2="224.72" gradientTransform="translate(393.11 -149.64)" xlink:href="#d"/></defs><g><g><g><circle class="ag" cx="121.64" cy="98.15" r="40.84"/><rect class="ad" x="118.6" y="8.84" width="6.07" height="40.84"/><rect class="ab" x="118.6" y="146.61" width="6.07" height="27.36" transform="translate(243.27 320.58) rotate(-180)"/><rect class="y" x="167.19" y="123.22" width="6.07" height="27.36" transform="translate(383.38 89.16) rotate(128.57)"/><rect class="z" x="179.19" y="70.64" width="6.07" height="27.36" transform="translate(223.88 -112.1) rotate(77.14)"/><rect class="u" x="145.56" y="28.48" width="6.07" height="27.36" transform="translate(33.01 -60.3) rotate(25.71)"/><rect class="v" x="91.64" y="28.48" width="6.07" height="27.36" transform="translate(-8.92 45.25) rotate(-25.71)"/><rect class="r" x="58.01" y="70.64" width="6.07" height="27.36" transform="translate(-34.74 125.07) rotate(-77.14)"/><rect class="ai" x="70.01" y="123.22" width="6.07" height="27.36" transform="translate(11.57 279.36) rotate(-128.57)"/><rect class="w" x="64.74" y="34.77" width="6.07" height="40.84" transform="translate(-17.64 73.77) rotate(-51.43)"/><rect class="t" x="51.44" y="93.05" width="6.07" height="40.84" transform="translate(-44.03 191.84) rotate(-102.86)"/><rect class="aa" x="88.71" y="139.79" width="6.07" height="40.84" transform="translate(104.89 344.37) rotate(-154.29)"/><rect class="ac" x="148.49" y="139.79" width="6.07" height="40.84" transform="translate(357.56 238.82) rotate(154.29)"/><rect class="s" x="185.76" y="93.05" width="6.07" height="40.84" transform="translate(341.44 -45.34) rotate(102.86)"/><rect class="x" x="172.46" y="34.77" width="6.07" height="40.84" transform="translate(109.23 -116.43) rotate(51.43)"/></g><path class="aj" d="m139.12,112.96c.88-2.62,1.37-5.42,1.37-8.33,0-14.35-11.63-25.99-25.98-25.99-3.17,0-6.21.57-9.02,1.61-3.66-9.92-13.2-17-24.39-17s-21.65,7.78-24.88,18.46c-3.65-1.96-7.82-3.07-12.26-3.07-14.35,0-25.99,11.63-25.99,25.99,0,3.31.63,6.47,1.75,9.38-9.03,4.07-15.31,13.14-15.31,23.69,0,14.35,11.63,25.99,25.99,25.99,6.36,0,12.18-2.29,16.69-6.07,4.52,3.79,10.34,6.07,16.69,6.07s11.65-2.09,16.07-5.58c4.42,3.49,10,5.58,16.07,5.58,6.8,0,12.99-2.62,17.62-6.89,4.63,4.28,10.82,6.89,17.62,6.89,14.35,0,25.98-11.63,25.98-25.99,0-11.58-7.58-21.39-18.04-24.74Z"/><path class="ae" d="m227.38,138.47c.89-2.64,1.38-5.46,1.38-8.4,0-14.47-11.73-26.21-26.21-26.21-3.2,0-6.26.57-9.09,1.62-3.69-10.01-13.31-17.15-24.6-17.15s-21.83,7.85-25.09,18.62c-3.68-1.97-7.89-3.1-12.36-3.1-14.47,0-26.21,11.73-26.21,26.21,0,3.34.63,6.53,1.77,9.46-9.1,4.11-15.45,13.26-15.45,23.89,0,14.47,11.73,26.21,26.21,26.21,6.41,0,12.28-2.3,16.83-6.13,4.55,3.82,10.42,6.13,16.84,6.13s11.75-2.11,16.21-5.62c4.46,3.52,10.09,5.62,16.21,5.62,6.86,0,13.1-2.64,17.77-6.95,4.67,4.31,10.91,6.95,17.77,6.95,14.47,0,26.21-11.73,26.21-26.21,0-11.68-7.64-21.57-18.2-24.96Z"/></g><path class="af" d="m122.33,234.84c-4.17,6.43-12.77,8.25-19.19,4.08-6.43-4.17-8.25-12.77-4.08-19.19s22.72-23.58,29.15-19.41-1.7,28.09-5.87,34.52Z"/><path class="af" d="m167.7,234.84c-4.17,6.43-12.77,8.25-19.19,4.08s-8.25-12.77-4.08-19.19c4.17-6.43,22.72-23.58,29.15-19.41s-1.7,28.09-5.87,34.52Z"/><path class="af" d="m213.08,234.84c-4.17,6.43-12.77,8.25-19.19,4.08s-8.25-12.77-4.08-19.19c4.17-6.43,22.72-23.58,29.15-19.41,6.43,4.17-1.7,28.09-5.87,34.52Z"/></g><path class="ah" d="m88.3,121.44c-11.9-2.41-23.8-4.83-35.7-7.24,3.63,10.07,7.26,20.14,10.9,30.21-6.86-1.2-13.71-2.41-20.57-3.61,6.16,11.71,12.33,23.43,18.49,35.14-8.78-1.35-17.55-2.7-26.33-4.04,21.55,20.8,43.1,41.6,64.65,62.39-7.52-21.82-15.04-43.64-22.56-65.46,8.89,2.09,17.77,4.18,26.66,6.27-5.18-17.89-10.36-35.78-15.54-53.67Z"/></svg>