<?xml version="1.0" encoding="UTF-8"?><svg id="b" xmlns="http://www.w3.org/2000/svg" viewBox="0 0 250 250"><defs><style>.c{stroke:#fff;stroke-miterlimit:10;stroke-width:1.32px;}.c,.d{fill:#808285;}.e{fill:#58595b;}</style></defs><g><path class="e" d="m223.98,62.63c1.05-3.11,1.63-6.43,1.63-9.89,0-17.04-13.81-30.85-30.85-30.85-3.76,0-7.37.68-10.7,1.91-4.34-11.78-15.67-20.19-28.96-20.19s-25.7,9.24-29.53,21.92c-4.34-2.32-9.29-3.65-14.55-3.65-17.04,0-30.85,13.81-30.85,30.85,0,3.93.74,7.68,2.08,11.14-10.72,4.84-18.18,15.61-18.18,28.13,0,17.04,13.81,30.85,30.85,30.85,7.55,0,14.46-2.71,19.82-7.21,5.36,4.5,12.27,7.21,19.82,7.21s13.83-2.48,19.08-6.62c5.25,4.14,11.88,6.62,19.08,6.62,8.07,0,15.42-3.11,20.92-8.18,5.5,5.08,12.85,8.18,20.92,8.18,17.04,0,30.85-13.81,30.85-30.85,0-13.75-9-25.39-21.42-29.38Z"/><path class="d" d="m176.89,115.81c1.13-3.35,1.76-6.93,1.76-10.66,0-18.36-14.88-33.24-33.24-33.24-4.05,0-7.94.73-11.53,2.06-4.68-12.69-16.88-21.75-31.2-21.75s-27.69,9.95-31.82,23.62c-4.67-2.5-10.01-3.93-15.68-3.93-18.36,0-33.24,14.88-33.24,33.24,0,4.23.8,8.28,2.24,12-11.55,5.21-19.59,16.81-19.59,30.3,0,18.36,14.88,33.24,33.24,33.24,8.13,0,15.58-2.92,21.35-7.77,5.78,4.85,13.22,7.77,21.35,7.77s14.9-2.67,20.56-7.13c5.66,4.46,12.8,7.13,20.56,7.13,8.7,0,16.61-3.35,22.54-8.81,5.92,5.47,13.84,8.81,22.54,8.81,18.36,0,33.24-14.88,33.24-33.24,0-14.81-9.69-27.36-23.08-31.65Z"/></g><path class="c" d="m60.88,202.81l-6.67,1.79-4.2-2.42v-3.4l4.2-2.42,6.67,1.79.75-2.8-3.87-1.04,3.04-1.76-1.45-2.51-3.04,1.76,1.04-3.87-2.8-.75-1.79,6.67-4.2,2.42-2.95-1.7v-4.85l4.88-4.88-2.05-2.05-2.83,2.83v-3.51h-2.9v3.51l-2.84-2.83-2.05,2.05,4.89,4.88v4.85l-2.95,1.7-4.2-2.42-1.79-6.67-2.8.75,1.04,3.87-3.04-1.76-1.45,2.51,3.04,1.76-3.87,1.04.75,2.8,6.67-1.79,4.2,2.42v3.4l-4.2,2.42-6.67-1.79-.75,2.8,3.87,1.04-3.04,1.76,1.45,2.51,3.04-1.76-1.04,3.87,2.8.75,1.79-6.67,4.2-2.42,2.95,1.7v4.85l-4.89,4.88,2.05,2.05,2.84-2.83v3.51h2.9v-3.51l2.83,2.83,2.05-2.05-4.88-4.88v-4.85l2.95-1.7,4.2,2.42,1.79,6.67,2.8-.75-1.04-3.87,3.04,1.76,1.45-2.51-3.04-1.76,3.87-1.04-.75-2.8Zm-13.77-.64l-2.95,1.7-2.95-1.7v-3.4l2.95-1.7,2.95,1.7v3.4Z"/><path class="c" d="m95.81,229.69l-6.67,1.79-4.2-2.42v-3.4l4.2-2.42,6.67,1.79.75-2.8-3.87-1.04,3.04-1.76-1.45-2.51-3.04,1.76,1.04-3.87-2.8-.75-1.79,6.67-4.2,2.42-2.95-1.7v-4.85l4.88-4.88-2.05-2.05-2.83,2.83v-3.51h-2.9v3.51l-2.84-2.83-2.05,2.05,4.89,4.88v4.85l-2.95,1.7-4.2-2.42-1.79-6.67-2.8.75,1.04,3.87-3.04-1.76-1.45,2.51,3.04,1.76-3.87,1.04.75,2.8,6.67-1.79,4.2,2.42v3.4l-4.2,2.42-6.67-1.79-.75,2.8,3.87,1.04-3.04,1.76,1.45,2.51,3.04-1.76-1.04,3.87,2.8.75,1.79-6.67,4.2-2.42,2.95,1.7v4.85l-4.89,4.88,2.05,2.05,2.84-2.83v3.51h2.9v-3.51l2.83,2.83,2.05-2.05-4.88-4.88v-4.85l2.95-1.7,4.2,2.42,1.79,6.67,2.8-.75-1.04-3.87,3.04,1.76,1.45-2.51-3.04-1.76,3.87-1.04-.75-2.8Zm-13.77-.64l-2.95,1.7-2.95-1.7v-3.4l2.95-1.7,2.95,1.7v3.4Z"/><path class="c" d="m135.64,202.81l-6.67,1.79-4.2-2.42v-3.4l4.2-2.42,6.67,1.79.75-2.8-3.87-1.04,3.04-1.76-1.45-2.51-3.04,1.76,1.04-3.87-2.8-.75-1.79,6.67-4.2,2.42-2.95-1.7v-4.85l4.88-4.88-2.05-2.05-2.83,2.83v-3.51h-2.9v3.51l-2.84-2.83-2.05,2.05,4.89,4.88v4.85l-2.95,1.7-4.2-2.42-1.79-6.67-2.8.75,1.04,3.87-3.04-1.76-1.45,2.51,3.04,1.76-3.87,1.04.75,2.8,6.67-1.79,4.2,2.42v3.4l-4.2,2.42-6.67-1.79-.75,2.8,3.87,1.04-3.04,1.76,1.45,2.51,3.04-1.76-1.04,3.87,2.8.75,1.79-6.67,4.2-2.42,2.95,1.7v4.85l-4.89,4.88,2.05,2.05,2.84-2.83v3.51h2.9v-3.51l2.83,2.83,2.05-2.05-4.88-4.88v-4.85l2.95-1.7,4.2,2.42,1.79,6.67,2.8-.75-1.04-3.87,3.04,1.76,1.45-2.51-3.04-1.76,3.87-1.04-.75-2.8Zm-13.77-.64l-2.95,1.7-2.95-1.7v-3.4l2.95-1.7,2.95,1.7v3.4Z"/><path class="c" d="m210.4,202.81l-6.67,1.79-4.2-2.42v-3.4l4.2-2.42,6.67,1.79.75-2.8-3.87-1.04,3.04-1.76-1.45-2.51-3.04,1.76,1.04-3.87-2.8-.75-1.79,6.67-4.2,2.42-2.95-1.7v-4.85l4.88-4.88-2.05-2.05-2.83,2.83v-3.51h-2.9v3.51l-2.84-2.83-2.05,2.05,4.89,4.88v4.85l-2.95,1.7-4.2-2.42-1.79-6.67-2.8.75,1.04,3.87-3.04-1.76-1.45,2.51,3.04,1.76-3.87,1.04.75,2.8,6.67-1.79,4.2,2.42v3.4l-4.2,2.42-6.67-1.79-.75,2.8,3.87,1.04-3.04,1.76,1.45,2.51,3.04-1.76-1.04,3.87,2.8.75,1.79-6.67,4.2-2.42,2.95,1.7v4.85l-4.89,4.88,2.05,2.05,2.84-2.83v3.51h2.9v-3.51l2.83,2.83,2.05-2.05-4.88-4.88v-4.85l2.95-1.7,4.2,2.42,1.79,6.67,2.8-.75-1.04-3.87,3.04,1.76,1.45-2.51-3.04-1.76,3.87-1.04-.75-2.8Zm-13.77-.64l-2.95,1.7-2.95-1.7v-3.4l2.95-1.7,2.95,1.7v3.4Z"/><path class="c" d="m171.45,229.69l-6.67,1.79-4.2-2.42v-3.4l4.2-2.42,6.67,1.79.75-2.8-3.87-1.04,3.04-1.76-1.45-2.51-3.04,1.76,1.04-3.87-2.8-.75-1.79,6.67-4.2,2.42-2.95-1.7v-4.85l4.88-4.88-2.05-2.05-2.83,2.83v-3.51h-2.9v3.51l-2.84-2.83-2.05,2.05,4.89,4.88v4.85l-2.95,1.7-4.2-2.42-1.79-6.67-2.8.75,1.04,3.87-3.04-1.76-1.45,2.51,3.04,1.76-3.87,1.04.75,2.8,6.67-1.79,4.2,2.42v3.4l-4.2,2.42-6.67-1.79-.75,2.8,3.87,1.04-3.04,1.76,1.45,2.51,3.04-1.76-1.04,3.87,2.8.75,1.79-6.67,4.2-2.42,2.95,1.7v4.85l-4.89,4.88,2.05,2.05,2.84-2.83v3.51h2.9v-3.51l2.83,2.83,2.05-2.05-4.88-4.88v-4.85l2.95-1.7,4.2,2.42,1.79,6.67,2.8-.75-1.04-3.87,3.04,1.76,1.45-2.51-3.04-1.76,3.87-1.04-.75-2.8Zm-13.77-.64l-2.95,1.7-2.95-1.7v-3.4l2.95-1.7,2.95,1.7v3.4Z"/></svg>