<?xml version="1.0" encoding="UTF-8"?><svg id="b" xmlns="http://www.w3.org/2000/svg" viewBox="0 0 250 250"><defs><style>.c{fill:#808285;}.d{fill:#2b3990;}.e{fill:#fff200;stroke:#fff;stroke-miterlimit:10;stroke-width:.21px;}.f{fill:#58595b;}</style></defs><g><path class="f" d="m223.98,59.97c1.05-3.11,1.63-6.43,1.63-9.89,0-17.04-13.81-30.85-30.85-30.85-3.76,0-7.37.68-10.7,1.91-4.34-11.78-15.67-20.19-28.96-20.19s-25.7,9.24-29.53,21.92c-4.34-2.32-9.29-3.65-14.55-3.65-17.04,0-30.85,13.81-30.85,30.85,0,3.93.74,7.68,2.08,11.14-10.72,4.84-18.18,15.61-18.18,28.13,0,17.04,13.81,30.85,30.85,30.85,7.55,0,14.46-2.71,19.82-7.21,5.36,4.5,12.27,7.21,19.82,7.21s13.83-2.48,19.08-6.62c5.25,4.14,11.88,6.62,19.08,6.62,8.07,0,15.42-3.11,20.92-8.18,5.5,5.08,12.85,8.18,20.92,8.18,17.04,0,30.85-13.81,30.85-30.85,0-13.75-9-25.39-21.42-29.38Z"/><path class="c" d="m176.89,113.14c1.13-3.35,1.76-6.93,1.76-10.66,0-18.36-14.88-33.24-33.24-33.24-4.05,0-7.94.73-11.53,2.06-4.68-12.69-16.88-21.75-31.2-21.75s-27.69,9.95-31.82,23.62c-4.67-2.5-10.01-3.93-15.68-3.93-18.36,0-33.24,14.88-33.24,33.24,0,4.23.8,8.28,2.24,12-11.55,5.21-19.59,16.81-19.59,30.3,0,18.36,14.88,33.24,33.24,33.24,8.13,0,15.58-2.92,21.35-7.77,5.78,4.85,13.22,7.77,21.35,7.77s14.9-2.67,20.56-7.13c5.66,4.46,12.8,7.13,20.56,7.13,8.7,0,16.61-3.35,22.54-8.81,5.92,5.47,13.84,8.81,22.54,8.81,18.36,0,33.24-14.88,33.24-33.24,0-14.81-9.69-27.36-23.08-31.65Z"/></g><path class="d" d="m60.29,242.73c-4.17,6.43-12.77,8.25-19.19,4.08-6.43-4.17-8.25-12.77-4.08-19.19,4.17-6.43,22.72-23.58,29.15-19.41,6.43,4.17-1.7,28.09-5.87,34.52Z"/><path class="d" d="m165.12,242.73c-4.17,6.43-12.77,8.25-19.19,4.08s-8.25-12.77-4.08-19.19c4.17-6.43,22.72-23.58,29.15-19.41,6.43,4.17-1.7,28.09-5.87,34.52Z"/><path class="d" d="m35.9,216.87c-4.17,6.43-12.77,8.25-19.19,4.08-6.43-4.17-8.25-12.77-4.08-19.19,4.17-6.43,22.72-23.58,29.15-19.41,6.43,4.17-1.7,28.09-5.87,34.52Z"/><path class="d" d="m140.47,216.87c-4.17,6.43-12.77,8.25-19.19,4.08-6.43-4.17-8.25-12.77-4.08-19.19,4.17-6.43,22.72-23.58,29.15-19.41s-1.7,28.09-5.87,34.52Z"/><path class="d" d="m204.23,216.87c-4.17,6.43-12.77,8.25-19.19,4.08-6.43-4.17-8.25-12.77-4.08-19.19,4.17-6.43,22.72-23.58,29.15-19.41s-1.7,28.09-5.87,34.52Z"/><path class="d" d="m229.14,242.73c-4.17,6.43-12.77,8.25-19.19,4.08-6.43-4.17-8.25-12.77-4.08-19.19,4.17-6.43,22.72-23.58,29.15-19.41,6.43,4.17-1.7,28.09-5.87,34.52Z"/><path class="e" d="m104.19,132.13c-11.9-2.41-23.8-4.83-35.7-7.24,3.63,10.07,7.26,20.14,10.9,30.21-6.86-1.2-13.71-2.41-20.57-3.61,6.16,11.71,12.33,23.43,18.49,35.14-8.78-1.35-17.55-2.7-26.33-4.04,21.55,20.8,43.1,41.6,64.65,62.39-7.52-21.82-15.04-43.64-22.56-65.46,8.89,2.09,17.77,4.18,26.66,6.27-5.18-17.89-10.36-35.78-15.54-53.67Z"/></svg>