<?xml version="1.0" encoding="UTF-8"?><svg id="b" xmlns="http://www.w3.org/2000/svg" viewBox="0 0 250 250"><defs><style>.c{fill:#808285;stroke:#939598;stroke-miterlimit:10;stroke-width:11.54px;}.d{fill:#58595b;}.e{fill:#414042;}</style></defs><circle class="c" cx="125" cy="125" r="116.59"/><g><path class="e" d="m204.31,101.34c.84-2.49,1.31-5.15,1.31-7.92,0-13.65-11.07-24.72-24.72-24.72-3.02,0-5.9.54-8.58,1.53-3.48-9.44-12.55-16.17-23.2-16.17s-20.6,7.4-23.66,17.56c-3.47-1.86-7.44-2.92-11.66-2.92-13.65,0-24.72,11.07-24.72,24.72,0,3.15.59,6.16,1.67,8.93-8.59,3.87-14.57,12.51-14.57,22.54,0,13.65,11.07,24.72,24.72,24.72,6.05,0,11.58-2.17,15.88-5.78,4.3,3.61,9.83,5.78,15.88,5.78s11.08-1.99,15.29-5.3c4.21,3.32,9.52,5.3,15.29,5.3,6.47,0,12.36-2.49,16.76-6.56,4.41,4.07,10.29,6.56,16.76,6.56,13.65,0,24.72-11.07,24.72-24.72,0-11.02-7.21-20.35-17.17-23.54Z"/><path class="d" d="m166.57,143.95c.91-2.68,1.41-5.55,1.41-8.54,0-14.71-11.92-26.63-26.63-26.63-3.25,0-6.36.58-9.24,1.65-3.75-10.17-13.52-17.42-25-17.42s-22.19,7.97-25.49,18.92c-3.74-2.01-8.02-3.15-12.56-3.15-14.71,0-26.63,11.92-26.63,26.63,0,3.39.64,6.63,1.8,9.62-9.25,4.17-15.7,13.47-15.7,24.28,0,14.71,11.92,26.63,26.63,26.63,6.51,0,12.48-2.34,17.11-6.23,4.63,3.88,10.59,6.23,17.11,6.23s11.94-2.14,16.47-5.71c4.53,3.58,10.25,5.71,16.47,5.71,6.97,0,13.31-2.68,18.06-7.06,4.75,4.38,11.09,7.06,18.06,7.06,14.71,0,26.63-11.92,26.63-26.63,0-11.87-7.77-21.92-18.49-25.36Z"/></g></svg>