<?xml version="1.0" encoding="UTF-8"?><svg id="b" xmlns="http://www.w3.org/2000/svg" viewBox="0 0 250 250"><defs><style>.c{fill:#fff;}.d{fill:#00aeef;stroke:#939598;stroke-width:11.54px;}.d,.e{stroke-miterlimit:10;}.e{fill:#808285;stroke:#fff;stroke-width:1.32px;}</style></defs><circle class="d" cx="125" cy="125" r="116.59"/><g><path class="c" d="m49.51,107.74c17.96-9.47,39.04-13,58.4-5.46,8.96,3.31,16.94,8.77,26.12,10.03,13.66,1.82,30.77-1.45,34.69-16.56,1.62-5.18,1.7-11.01-.15-15.89-2.52-6.76-7.1-12.78-14.12-14.89-7.57-2.13-15.4-1.07-21.33,5.04-3.21,3.14-5.68,7.27-7.35,11.51,0,0-1.56-.2-1.56-.2-1.46-14.43,8.74-28.38,23.91-29.94,19.39-3.19,36.53,13.24,37.77,32.08.39,6.1-.95,12.16-3.37,17.62-5.98,14.44-19.51,22.16-34.47,22.86-5.44.31-10.76,0-16.08-1.23-5.36-1.21-10.35-3.59-14.71-6.08-8.4-4.96-15.97-9.56-25.4-11.59-13.9-3.14-28.26-.72-41.72,4.15,0,0-.63-1.44-.63-1.44h0Z"/><path class="c" d="m50.86,99.22c11.03-6.54,23.9-11.35,36.94-9.43,6.45.98,12.44,3.61,18.51,5.8,6.02,2.24,12.07,4.38,18.16,6.4l4.58,1.49c5.87,2.1,12.21,2.69,18.13.58,7.82-2.26,11.88-9.31,9.45-17.13-3.59-9.93-17.11-7.58-22.36-.27,0,0-.22-.15-.22-.15.87-1.36,1.89-2.66,3.13-3.75,3.76-3.36,9.08-4.93,14.09-3.55,7.24,1.88,9.88,10.61,7.83,17.19-1.99,7.04-9.29,10.47-16.04,11.31-6.65.98-13.18-1.51-19.28-3.74-6.07-2.16-12.1-4.42-18.09-6.79-5.95-2.28-11.82-5.01-18.11-6.1-12.7-2.23-25.56,2.22-36.6,8.36,0,0-.13-.23-.13-.23h0Z"/><path class="c" d="m59.66,117.08c10.92-3.28,23.03-3.69,33.88.34,6.09,2.09,11.13,6.27,16.34,9.87,6.21,4.36,13.57,6.54,21,7.7,9.79,1.61,20.27.84,29.1-3.96,4.52-2.38,8.4-5.99,13.49-7.44,14.73-3.79,27.51,5.71,26.99,21.16-.73,15.56-22.23,20.41-30.97,8.44-2.94-4.65-3.23-11.08.23-15.53,3.44-4.2,9.63-5.81,14.72-3.96,5.87,2.26,5.04,9.33,2.07,13.62,0,0-.22-.13-.22-.13,1.19-2.21,1.97-4.7,1.79-7.14-.27-5.47-6.84-6.65-11.14-5.16-7.61,2.01-9.7,10.88-5.57,17.05,5.64,7.52,19.15,7.01,24.27-.87,3.92-6,2.22-14.38-1.98-19.83-2.97-3.8-7.67-5.78-12.43-6.17-8.56-1.01-13.15,3.71-20.35,7.65-9.22,4.87-20.11,5.58-30.24,3.77-7.59-1.29-15.14-3.63-21.41-8.21-5.14-3.67-9.97-7.86-15.97-10.04-10.63-4.15-22.56-3.96-33.5-.88,0,0-.07-.25-.07-.25h0Z"/></g><path class="e" d="m101.03,149.22l-6.83-1.03-2.88-3.9,1.36-3.12,4.82-.54,5.4,4.31,1.81-2.27-3.14-2.5,3.49-.39-.32-2.88-3.49.39,2.5-3.13-2.27-1.81-4.31,5.4-4.82.54-2.02-2.74,1.94-4.44,6.43-2.52-1.06-2.7-3.73,1.46,1.41-3.22-2.66-1.16-1.41,3.22-1.47-3.73-2.7,1.06,2.52,6.43-1.94,4.44-3.38.38-2.88-3.9,1.03-6.83-2.87-.43-.6,3.96-2.09-2.83-2.33,1.72,2.09,2.83-3.97-.6-.43,2.87,6.83,1.03,2.88,3.9-1.36,3.12-4.82.54-5.4-4.31-1.81,2.27,3.14,2.5-3.49.39.32,2.88,3.49-.39-2.5,3.13,2.27,1.81,4.31-5.4,4.82-.54,2.02,2.74-1.94,4.44-6.43,2.52,1.06,2.7,3.73-1.46-1.41,3.22,2.66,1.16,1.41-3.22,1.46,3.73,2.7-1.06-2.52-6.43,1.94-4.44,3.38-.38,2.88,3.9-1.03,6.83,2.87.43.6-3.96,2.09,2.83,2.33-1.72-2.09-2.83,3.97.6.43-2.87Zm-12.37-6.09l-3.38.38-2.02-2.74,1.36-3.12,3.38-.38,2.02,2.74-1.36,3.12Z"/><path class="e" d="m116.8,184.45l-6.83-1.03-2.88-3.9,1.36-3.12,4.82-.54,5.4,4.31,1.81-2.27-3.14-2.5,3.49-.39-.32-2.88-3.49.39,2.5-3.13-2.27-1.81-4.31,5.4-4.82.54-2.02-2.74,1.94-4.44,6.43-2.52-1.06-2.7-3.73,1.46,1.41-3.22-2.66-1.16-1.41,3.22-1.47-3.73-2.7,1.06,2.52,6.43-1.94,4.44-3.38.38-2.88-3.9,1.03-6.83-2.87-.43-.6,3.96-2.09-2.83-2.33,1.72,2.09,2.83-3.97-.6-.43,2.87,6.83,1.03,2.88,3.9-1.36,3.12-4.82.54-5.4-4.31-1.81,2.27,3.14,2.5-3.49.39.32,2.88,3.49-.39-2.5,3.13,2.27,1.81,4.31-5.4,4.82-.54,2.02,2.74-1.94,4.44-6.43,2.52,1.06,2.7,3.73-1.46-1.41,3.22,2.66,1.16,1.41-3.22,1.46,3.73,2.7-1.06-2.52-6.43,1.94-4.44,3.38-.38,2.88,3.9-1.03,6.83,2.87.43.6-3.96,2.09,2.83,2.33-1.72-2.09-2.83,3.97.6.43-2.87Zm-12.37-6.09l-3.38.38-2.02-2.74,1.36-3.12,3.38-.38,2.02,2.74-1.36,3.12Z"/><path class="e" d="m152.35,171.61l-6.83-1.03-2.88-3.9,1.36-3.12,4.82-.54,5.4,4.31,1.81-2.27-3.14-2.5,3.49-.39-.32-2.88-3.49.39,2.5-3.13-2.27-1.81-4.31,5.4-4.82.54-2.02-2.74,1.94-4.44,6.43-2.52-1.06-2.7-3.73,1.46,1.41-3.22-2.66-1.16-1.41,3.22-1.47-3.73-2.7,1.06,2.52,6.43-1.94,4.44-3.38.38-2.88-3.9,1.03-6.83-2.87-.43-.6,3.96-2.09-2.83-2.33,1.72,2.09,2.83-3.97-.6-.43,2.87,6.83,1.03,2.88,3.9-1.36,3.12-4.82.54-5.4-4.31-1.81,2.27,3.14,2.5-3.49.39.32,2.88,3.49-.39-2.5,3.13,2.27,1.81,4.31-5.4,4.82-.54,2.02,2.74-1.94,4.44-6.43,2.52,1.06,2.7,3.73-1.46-1.41,3.22,2.66,1.16,1.41-3.22,1.46,3.73,2.7-1.06-2.52-6.43,1.94-4.44,3.38-.38,2.88,3.9-1.03,6.83,2.87.43.6-3.96,2.09,2.83,2.33-1.72-2.09-2.83,3.97.6.43-2.87Zm-12.37-6.09l-3.38.38-2.02-2.74,1.36-3.12,3.38-.38,2.02,2.74-1.36,3.12Z"/></svg>