<?xml version="1.0" encoding="UTF-8"?><svg id="b" xmlns="http://www.w3.org/2000/svg" viewBox="0 0 250 250"><defs><style>.c{fill:#808285;}.d{fill:#58595b;}</style></defs><g><path class="d" d="m223.98,68.79c1.05-3.11,1.63-6.43,1.63-9.89,0-17.04-13.81-30.85-30.85-30.85-3.76,0-7.37.68-10.7,1.91-4.34-11.78-15.67-20.19-28.96-20.19s-25.7,9.24-29.53,21.92c-4.34-2.32-9.29-3.65-14.55-3.65-17.04,0-30.85,13.81-30.85,30.85,0,3.93.74,7.68,2.08,11.14-10.72,4.84-18.18,15.61-18.18,28.13,0,17.04,13.81,30.85,30.85,30.85,7.55,0,14.46-2.71,19.82-7.21,5.36,4.5,12.27,7.21,19.82,7.21s13.83-2.48,19.08-6.62c5.25,4.14,11.88,6.62,19.08,6.62,8.07,0,15.42-3.11,20.92-8.18,5.5,5.08,12.85,8.18,20.92,8.18,17.04,0,30.85-13.81,30.85-30.85,0-13.75-9-25.39-21.42-29.38Z"/><path class="c" d="m176.89,121.96c1.13-3.35,1.76-6.93,1.76-10.66,0-18.36-14.88-33.24-33.24-33.24-4.05,0-7.94.73-11.53,2.06-4.68-12.69-16.88-21.75-31.2-21.75s-27.69,9.95-31.82,23.62c-4.67-2.5-10.01-3.93-15.68-3.93-18.36,0-33.24,14.88-33.24,33.24,0,4.23.8,8.28,2.24,12-11.55,5.21-19.59,16.81-19.59,30.3,0,18.36,14.88,33.24,33.24,33.24,8.13,0,15.58-2.92,21.35-7.77,5.78,4.85,13.22,7.77,21.35,7.77s14.9-2.67,20.56-7.13c5.66,4.46,12.8,7.13,20.56,7.13,8.7,0,16.61-3.35,22.54-8.81,5.92,5.47,13.84,8.81,22.54,8.81,18.36,0,33.24-14.88,33.24-33.24,0-14.81-9.69-27.36-23.08-31.65Z"/></g><path class="c" d="m108.07,233.91c-4.17,6.43-12.77,8.25-19.19,4.08s-8.25-12.77-4.08-19.19c4.17-6.43,22.72-23.58,29.15-19.41,6.43,4.17-1.7,28.09-5.87,34.52Z"/><path class="c" d="m52.79,227.86c-4.17,6.43-12.77,8.25-19.19,4.08-6.43-4.17-8.25-12.77-4.08-19.19s22.72-23.58,29.15-19.41c6.43,4.17-1.7,28.09-5.87,34.52Z"/><path class="c" d="m163.36,227.86c-4.17,6.43-12.77,8.25-19.19,4.08-6.43-4.17-8.25-12.77-4.08-19.19s22.72-23.58,29.15-19.41c6.43,4.17-1.7,28.09-5.87,34.52Z"/></svg>