<?xml version="1.0" encoding="UTF-8"?><svg id="b" xmlns="http://www.w3.org/2000/svg" viewBox="0 0 250 250"><defs><style>.c{fill:#fff;}.d{fill:#121132;}.e{fill:#c2b59b;}.f{fill:#262262;stroke:#939598;stroke-miterlimit:10;stroke-width:11.54px;}</style></defs><circle class="f" cx="125" cy="125" r="116.59"/><circle class="c" cx="146.05" cy="101.24" r="1.42"/><circle class="c" cx="149.63" cy="132.89" r="1.42"/><circle class="c" cx="156.85" cy="61" r="1.42"/><g><path class="e" d="m209.19,98.02c0,24.11-19.55,43.67-43.67,43.67-4.04,0-7.96-.55-11.68-1.58,18.44-5.1,31.99-22.01,31.99-42.08s-13.55-36.99-31.99-42.09c3.72-1.03,7.64-1.58,11.68-1.58,24.11,0,43.67,19.55,43.67,43.68Z"/><path class="d" d="m185.83,98.02c0,20.07-13.55,36.98-31.99,42.08-18.45-5.1-32-22.01-32-42.08s13.55-36.99,32-42.09c18.44,5.1,31.99,22.02,31.99,42.09Z"/></g><g><circle class="c" cx="63.88" cy="72.63" r="1.93"/><circle class="c" cx="54.51" cy="140.36" r="1.93"/><circle class="c" cx="139.18" cy="158.5" r="1.93"/><circle class="c" cx="107.63" cy="99.7" r="1.93"/><circle class="c" cx="105.2" cy="70.19" r="1.93"/><circle class="c" cx="68.75" cy="49.03" r="1.93"/><circle class="c" cx="41.12" cy="104.58" r="1.93"/><circle class="c" cx="37.16" cy="178.89" r="1.93"/><circle class="c" cx="200.91" cy="192.79" r="1.93"/><circle class="c" cx="162.8" cy="178.89" r="1.93"/><circle class="c" cx="115.33" cy="228.47" r="1.93"/><circle class="c" cx="117.77" cy="194" r="1.93"/><circle class="c" cx="112.9" cy="135.48" r="1.93"/><circle class="c" cx="61.44" cy="195.23" r="1.93"/><circle class="c" cx="75.96" cy="122.3" r="1.93"/><circle class="c" cx="126.77" cy="16.78" r="3.22"/><circle class="c" cx="75.96" cy="29.78" r="1.93"/><circle class="c" cx="34.73" cy="63.98" r="1.93"/><circle class="c" cx="222.08" cy="171.43" r="1.93"/><circle class="c" cx="167.68" cy="213" r="3.86"/><circle class="c" cx="196.04" cy="161.85" r="3.86"/><circle class="c" cx="82.33" cy="156.97" r="3.86"/><circle class="c" cx="29.85" cy="127.18" r="3.86"/><circle class="c" cx="82.33" cy="208.13" r="3.86"/></g></svg>