<?xml version="1.0" encoding="UTF-8"?><svg id="b" xmlns="http://www.w3.org/2000/svg" viewBox="0 0 250 250"><defs><style>.c{fill:#fff;}.d{fill:#121132;}.e{fill:#808285;}.f{fill:#c2b59b;}.g{fill:#262262;stroke:#939598;stroke-miterlimit:10;stroke-width:11.54px;}</style></defs><circle class="g" cx="125" cy="125" r="116.59"/><circle class="c" cx="80.59" cy="84.93" r="1.42"/><circle class="c" cx="73.7" cy="134.68" r="1.42"/><circle class="c" cx="135.91" cy="148.01" r="1.42"/><circle class="c" cx="146.05" cy="101.24" r="1.42"/><circle class="c" cx="112.73" cy="104.82" r="1.42"/><circle class="c" cx="110.94" cy="83.14" r="1.42"/><circle class="c" cx="149.63" cy="132.89" r="1.42"/><circle class="c" cx="84.17" cy="67.59" r="1.42"/><circle class="c" cx="63.87" cy="108.4" r="1.42"/><circle class="c" cx="60.96" cy="162.99" r="1.42"/><circle class="c" cx="181.26" cy="173.21" r="1.42"/><circle class="c" cx="153.27" cy="162.99" r="1.42"/><circle class="c" cx="118.39" cy="199.42" r="1.42"/><circle class="c" cx="120.18" cy="174.1" r="1.42"/><circle class="c" cx="116.6" cy="131.1" r="1.42"/><circle class="c" cx="78.8" cy="175" r="1.42"/><circle class="c" cx="89.46" cy="121.42" r="1.42"/><circle class="c" cx="156.85" cy="61" r="1.42"/><circle class="c" cx="126.79" cy="43.9" r="2.36"/><circle class="c" cx="89.46" cy="53.45" r="1.42"/><circle class="c" cx="59.17" cy="78.57" r="1.42"/><circle class="c" cx="196.81" cy="157.51" r="1.42"/><g><path class="f" d="m209.19,98.02c0,24.11-19.55,43.67-43.67,43.67-4.04,0-7.96-.55-11.68-1.58,18.44-5.1,31.99-22.01,31.99-42.08s-13.55-36.99-31.99-42.09c3.72-1.03,7.64-1.58,11.68-1.58,24.11,0,43.67,19.55,43.67,43.68Z"/><path class="d" d="m185.83,98.02c0,20.07-13.55,36.98-31.99,42.08-18.45-5.1-32-22.01-32-42.08s13.55-36.99,32-42.09c18.44,5.1,31.99,22.02,31.99,42.09Z"/></g><circle class="c" cx="156.85" cy="188.05" r="2.84"/><circle class="c" cx="177.68" cy="150.47" r="2.84"/><circle class="c" cx="94.15" cy="146.89" r="2.84"/><circle class="c" cx="55.59" cy="125" r="2.84"/><circle class="c" cx="94.15" cy="184.47" r="2.84"/><path class="e" d="m158.99,114.99c.52-1.52.8-3.16.8-4.85,0-8.36-6.78-15.14-15.14-15.14-1.85,0-3.62.33-5.25.94-2.13-5.78-7.69-9.91-14.21-9.91s-12.62,4.53-14.5,10.76c-2.13-1.14-4.56-1.79-7.14-1.79-8.36,0-15.14,6.78-15.14,15.14,0,1.93.36,3.77,1.02,5.47-5.26,2.37-8.92,7.66-8.92,13.81,0,8.36,6.78,15.14,15.14,15.14,3.7,0,7.1-1.33,9.73-3.54,2.63,2.21,6.02,3.54,9.73,3.54s6.79-1.22,9.37-3.25c2.58,2.03,5.83,3.25,9.37,3.25,3.96,0,7.57-1.52,10.27-4.02,2.7,2.49,6.3,4.02,10.27,4.02,8.36,0,15.14-6.78,15.14-15.14,0-6.75-4.42-12.46-10.51-14.42Z"/></svg>