<?xml version="1.0" encoding="UTF-8"?><svg id="b" xmlns="http://www.w3.org/2000/svg" viewBox="0 0 250 250"><defs><style>.c{fill:#fff;}.d{fill:#121132;}.e{fill:#808285;}.f{fill:#c2b59b;}.g{fill:#2b3990;}.h{fill:#262262;stroke:#939598;stroke-miterlimit:10;stroke-width:11.54px;}</style></defs><circle class="c" cx="80.59" cy="84.93" r="1.42"/><circle class="c" cx="73.7" cy="134.68" r="1.42"/><circle class="c" cx="135.91" cy="148.01" r="1.42"/><circle class="c" cx="146.05" cy="101.24" r="1.42"/><circle class="c" cx="112.73" cy="104.82" r="1.42"/><circle class="c" cx="110.94" cy="83.14" r="1.42"/><circle class="c" cx="149.63" cy="132.89" r="1.42"/><circle class="c" cx="84.17" cy="67.59" r="1.42"/><circle class="c" cx="63.87" cy="108.4" r="1.42"/><circle class="c" cx="60.96" cy="162.99" r="1.42"/><circle class="c" cx="181.26" cy="173.21" r="1.42"/><circle class="c" cx="153.27" cy="162.99" r="1.42"/><circle class="c" cx="118.39" cy="199.42" r="1.42"/><circle class="c" cx="120.18" cy="174.1" r="1.42"/><circle class="c" cx="116.6" cy="131.1" r="1.42"/><circle class="c" cx="78.8" cy="175" r="1.42"/><circle class="c" cx="89.46" cy="121.42" r="1.42"/><circle class="c" cx="156.85" cy="61" r="1.42"/><circle class="c" cx="126.79" cy="43.9" r="2.36"/><circle class="c" cx="89.46" cy="53.45" r="1.42"/><circle class="c" cx="59.17" cy="78.57" r="1.42"/><circle class="c" cx="196.81" cy="157.51" r="1.42"/><circle class="c" cx="156.85" cy="188.05" r="2.84"/><circle class="c" cx="177.68" cy="150.47" r="2.84"/><circle class="c" cx="94.15" cy="146.89" r="2.84"/><circle class="c" cx="55.59" cy="125" r="2.84"/><circle class="c" cx="94.15" cy="184.47" r="2.84"/><circle class="h" cx="125" cy="125" r="116.59"/><g><path class="f" d="m209.19,98.02c0,24.11-19.55,43.67-43.67,43.67-4.04,0-7.96-.55-11.68-1.58,18.44-5.1,31.99-22.01,31.99-42.08s-13.55-36.99-31.99-42.09c3.72-1.03,7.64-1.58,11.68-1.58,24.11,0,43.67,19.55,43.67,43.68Z"/><path class="d" d="m185.83,98.02c0,20.07-13.55,36.98-31.99,42.08-18.45-5.1-32-22.01-32-42.08s13.55-36.99,32-42.09c18.44,5.1,31.99,22.02,31.99,42.09Z"/></g><g><circle class="c" cx="63.88" cy="75.65" r="1.93"/><circle class="c" cx="54.51" cy="143.37" r="1.93"/><circle class="c" cx="139.18" cy="161.51" r="1.93"/><circle class="c" cx="107.63" cy="102.72" r="1.93"/><circle class="c" cx="105.2" cy="73.21" r="1.93"/><circle class="c" cx="68.75" cy="52.04" r="1.93"/><circle class="c" cx="41.12" cy="107.59" r="1.93"/><circle class="c" cx="37.16" cy="181.9" r="1.93"/><circle class="c" cx="200.91" cy="195.81" r="1.93"/><circle class="c" cx="162.8" cy="181.9" r="1.93"/><circle class="c" cx="115.33" cy="231.49" r="1.93"/><circle class="c" cx="117.77" cy="197.02" r="1.93"/><circle class="c" cx="112.9" cy="138.5" r="1.93"/><circle class="c" cx="61.44" cy="198.25" r="1.93"/><circle class="c" cx="75.96" cy="125.32" r="1.93"/><circle class="c" cx="126.77" cy="19.8" r="3.22"/><circle class="c" cx="75.96" cy="32.8" r="1.93"/><circle class="c" cx="34.73" cy="67" r="1.93"/><circle class="c" cx="222.08" cy="174.45" r="1.93"/><circle class="c" cx="167.68" cy="216.02" r="3.86"/><circle class="c" cx="196.04" cy="164.86" r="3.86"/><circle class="c" cx="82.33" cy="159.99" r="3.86"/><circle class="c" cx="29.85" cy="130.19" r="3.86"/><circle class="c" cx="82.33" cy="211.14" r="3.86"/></g><path class="e" d="m174.74,114.74c.96-2.83,1.48-5.86,1.48-9.01,0-15.52-12.58-28.1-28.1-28.1-3.43,0-6.71.62-9.75,1.74-3.95-10.73-14.27-18.39-26.38-18.39s-23.41,8.41-26.9,19.97c-3.95-2.12-8.46-3.32-13.26-3.32-15.52,0-28.1,12.58-28.1,28.1,0,3.58.68,7,1.9,10.15-9.76,4.4-16.56,14.22-16.56,25.62,0,15.52,12.58,28.1,28.1,28.1,6.87,0,13.17-2.47,18.05-6.57,4.88,4.1,11.18,6.57,18.05,6.57s12.6-2.26,17.38-6.03c4.78,3.77,10.82,6.03,17.38,6.03,7.35,0,14.05-2.83,19.05-7.45,5.01,4.62,11.7,7.45,19.05,7.45,15.52,0,28.1-12.58,28.1-28.1,0-12.52-8.2-23.13-19.51-26.76Z"/><path class="g" d="m90.29,188.35c-4.17,6.43-12.77,8.25-19.19,4.08-6.43-4.17-8.25-12.77-4.08-19.19,4.17-6.43,22.72-23.58,29.15-19.41s-1.7,28.09-5.87,34.52Z"/><path class="g" d="m124.27,194.2c-4.17,6.43-12.77,8.25-19.19,4.08-6.43-4.17-8.25-12.77-4.08-19.19,4.17-6.43,22.72-23.58,29.15-19.41,6.43,4.17-1.7,28.09-5.87,34.52Z"/><path class="g" d="m158.26,187.63c-4.17,6.43-12.77,8.25-19.19,4.08-6.43-4.17-8.25-12.77-4.08-19.19,4.17-6.43,22.72-23.58,29.15-19.41,6.43,4.17-1.7,28.09-5.87,34.52Z"/></svg>