<?xml version="1.0" encoding="UTF-8"?><svg id="b" xmlns="http://www.w3.org/2000/svg" viewBox="0 0 250 250"><defs><style>.c{fill:#fff;}.d{stroke:#fff;stroke-width:1px;}.d,.e{fill:#808285;}.d,.f{stroke-miterlimit:10;}.g{fill:#121132;}.h{fill:#c2b59b;}.f{fill:#262262;stroke:#939598;stroke-width:11.54px;}.i{fill:#58595b;}</style></defs><circle class="f" cx="125" cy="125" r="116.59"/><circle class="c" cx="80.59" cy="84.93" r="1.42"/><circle class="c" cx="73.7" cy="134.68" r="1.42"/><circle class="c" cx="135.91" cy="148.01" r="1.42"/><circle class="c" cx="146.05" cy="101.24" r="1.42"/><circle class="c" cx="112.73" cy="104.82" r="1.42"/><circle class="c" cx="110.94" cy="83.14" r="1.42"/><circle class="c" cx="149.63" cy="132.89" r="1.42"/><circle class="c" cx="84.17" cy="67.59" r="1.42"/><circle class="c" cx="63.87" cy="108.4" r="1.42"/><circle class="c" cx="60.96" cy="162.99" r="1.42"/><circle class="c" cx="181.26" cy="173.21" r="1.42"/><circle class="c" cx="153.27" cy="162.99" r="1.42"/><circle class="c" cx="118.39" cy="199.42" r="1.42"/><circle class="c" cx="120.18" cy="174.1" r="1.42"/><circle class="c" cx="116.6" cy="131.1" r="1.42"/><circle class="c" cx="78.8" cy="175" r="1.42"/><circle class="c" cx="89.46" cy="121.42" r="1.42"/><circle class="c" cx="156.85" cy="61" r="1.42"/><circle class="c" cx="126.79" cy="43.9" r="2.36"/><circle class="c" cx="89.46" cy="53.45" r="1.42"/><circle class="c" cx="59.17" cy="78.57" r="1.42"/><circle class="c" cx="196.81" cy="157.51" r="1.42"/><g><path class="h" d="m209.19,98.02c0,24.11-19.55,43.67-43.67,43.67-4.04,0-7.96-.55-11.68-1.58,18.44-5.1,31.99-22.01,31.99-42.08s-13.55-36.99-31.99-42.09c3.72-1.03,7.64-1.58,11.68-1.58,24.11,0,43.67,19.55,43.67,43.68Z"/><path class="g" d="m185.83,98.02c0,20.07-13.55,36.98-31.99,42.08-18.45-5.1-32-22.01-32-42.08s13.55-36.99,32-42.09c18.44,5.1,31.99,22.02,31.99,42.09Z"/></g><circle class="c" cx="156.85" cy="188.05" r="2.84"/><circle class="c" cx="177.68" cy="150.47" r="2.84"/><circle class="c" cx="94.15" cy="146.89" r="2.84"/><circle class="c" cx="55.59" cy="125" r="2.84"/><circle class="c" cx="94.15" cy="184.47" r="2.84"/><path class="i" d="m185.58,134.57c.55-1.63.85-3.37.85-5.19,0-8.94-7.25-16.19-16.19-16.19-1.97,0-3.87.35-5.62,1-2.28-6.18-8.22-10.59-15.19-10.59s-13.49,4.85-15.5,11.5c-2.27-1.22-4.87-1.91-7.64-1.91-8.94,0-16.19,7.25-16.19,16.19,0,2.06.39,4.03,1.09,5.85-5.62,2.54-9.54,8.19-9.54,14.76,0,8.94,7.25,16.19,16.19,16.19,3.96,0,7.59-1.42,10.4-3.78,2.81,2.36,6.44,3.78,10.4,3.78s7.26-1.3,10.01-3.47c2.76,2.17,6.23,3.47,10.01,3.47,4.24,0,8.09-1.63,10.98-4.29,2.89,2.66,6.74,4.29,10.98,4.29,8.94,0,16.19-7.25,16.19-16.19,0-7.21-4.72-13.32-11.24-15.41Z"/><path class="e" d="m149.83,116.33c.65-1.93,1.01-4,1.01-6.16,0-10.61-8.6-19.21-19.21-19.21-2.34,0-4.59.42-6.66,1.19-2.7-7.34-9.76-12.57-18.03-12.57s-16,5.75-18.39,13.65c-2.7-1.45-5.78-2.27-9.06-2.27-10.61,0-19.21,8.6-19.21,19.21,0,2.45.46,4.78,1.3,6.94-6.67,3.01-11.32,9.72-11.32,17.51,0,10.61,8.6,19.21,19.21,19.21,4.7,0,9-1.69,12.34-4.49,3.34,2.8,7.64,4.49,12.34,4.49s8.61-1.54,11.88-4.12c3.27,2.58,7.39,4.12,11.88,4.12,5.03,0,9.6-1.93,13.03-5.09,3.42,3.16,8,5.09,13.03,5.09,10.61,0,19.21-8.6,19.21-19.21,0-8.56-5.6-15.81-13.34-18.29Z"/><path class="d" d="m98.92,165.18l-5.04,1.35-3.17-1.83v-2.57l3.17-1.83,5.04,1.35.57-2.11-2.92-.78,2.3-1.33-1.09-1.9-2.3,1.33.78-2.92-2.11-.57-1.35,5.04-3.17,1.83-2.22-1.28v-3.66l3.69-3.69-1.55-1.55-2.14,2.14v-2.65h-2.19v2.65l-2.14-2.14-1.55,1.55,3.69,3.69v3.66l-2.22,1.28-3.17-1.83-1.35-5.04-2.11.57.78,2.92-2.3-1.33-1.09,1.9,2.3,1.33-2.92.78.57,2.11,5.04-1.35,3.17,1.83v2.57l-3.17,1.83-5.04-1.35-.57,2.11,2.92.78-2.3,1.33,1.09,1.9,2.3-1.33-.78,2.92,2.11.57,1.35-5.04,3.17-1.83,2.22,1.28v3.66l-3.69,3.69,1.55,1.55,2.14-2.14v2.65h2.19v-2.65l2.14,2.14,1.55-1.55-3.69-3.69v-3.66l2.22-1.28,3.17,1.83,1.35,5.04,2.11-.57-.78-2.92,2.3,1.33,1.09-1.9-2.3-1.33,2.92-.78-.57-2.11Zm-10.4-.48l-2.22,1.28-2.22-1.28v-2.57l2.22-1.28,2.22,1.28v2.57Z"/><path class="d" d="m134.03,188.52l-5.04,1.35-3.17-1.83v-2.57l3.17-1.83,5.04,1.35.57-2.11-2.92-.78,2.3-1.33-1.09-1.9-2.3,1.33.78-2.92-2.11-.57-1.35,5.04-3.17,1.83-2.22-1.28v-3.66l3.69-3.69-1.55-1.55-2.14,2.14v-2.65h-2.19v2.65l-2.14-2.14-1.55,1.55,3.69,3.69v3.66l-2.22,1.28-3.17-1.83-1.35-5.04-2.11.57.78,2.92-2.3-1.33-1.09,1.9,2.3,1.33-2.92.78.57,2.11,5.04-1.35,3.17,1.83v2.57l-3.17,1.83-5.04-1.35-.57,2.11,2.92.78-2.3,1.33,1.09,1.9,2.3-1.33-.78,2.92,2.11.57,1.35-5.04,3.17-1.83,2.22,1.28v3.66l-3.69,3.69,1.55,1.55,2.14-2.14v2.65h2.19v-2.65l2.14,2.14,1.55-1.55-3.69-3.69v-3.66l2.22-1.28,3.17,1.83,1.35,5.04,2.11-.57-.78-2.92,2.3,1.33,1.09-1.9-2.3-1.33,2.92-.78-.57-2.11Zm-10.4-.48l-2.22,1.28-2.22-1.28v-2.57l2.22-1.28,2.22,1.28v2.57Z"/><path class="d" d="m169.14,175.69l-5.04,1.35-3.17-1.83v-2.57l3.17-1.83,5.04,1.35.57-2.11-2.92-.78,2.3-1.33-1.09-1.9-2.3,1.33.78-2.92-2.11-.57-1.35,5.04-3.17,1.83-2.22-1.28v-3.66l3.69-3.69-1.55-1.55-2.14,2.14v-2.65h-2.19v2.65l-2.14-2.14-1.55,1.55,3.69,3.69v3.66l-2.22,1.28-3.17-1.83-1.35-5.04-2.11.57.78,2.92-2.3-1.33-1.09,1.9,2.3,1.33-2.92.78.57,2.11,5.04-1.35,3.17,1.83v2.57l-3.17,1.83-5.04-1.35-.57,2.11,2.92.78-2.3,1.33,1.09,1.9,2.3-1.33-.78,2.92,2.11.57,1.35-5.04,3.17-1.83,2.22,1.28v3.66l-3.69,3.69,1.55,1.55,2.14-2.14v2.65h2.19v-2.65l2.14,2.14,1.55-1.55-3.69-3.69v-3.66l2.22-1.28,3.17,1.83,1.35,5.04,2.11-.57-.78-2.92,2.3,1.33,1.09-1.9-2.3-1.33,2.92-.78-.57-2.11Zm-10.4-.48l-2.22,1.28-2.22-1.28v-2.57l2.22-1.28,2.22,1.28v2.57Z"/></svg>