<?xml version="1.0" encoding="UTF-8"?><svg id="b" xmlns="http://www.w3.org/2000/svg" viewBox="0 0 250 250"><defs><style>.c{fill:#fff;}.d{fill:#fff200;stroke:#fff;stroke-width:.13px;}.d,.e{stroke-miterlimit:10;}.f{fill:#121132;}.g{fill:#808285;}.h{fill:#c2b59b;}.i{fill:#2b3990;}.e{fill:#262262;stroke:#939598;stroke-width:11.54px;}.j{fill:#58595b;}</style></defs><circle class="c" cx="80.59" cy="84.93" r="1.42"/><circle class="c" cx="73.7" cy="134.68" r="1.42"/><circle class="c" cx="135.91" cy="148.01" r="1.42"/><circle class="c" cx="146.05" cy="101.24" r="1.42"/><circle class="c" cx="112.73" cy="104.82" r="1.42"/><circle class="c" cx="110.94" cy="83.14" r="1.42"/><circle class="c" cx="149.63" cy="132.89" r="1.42"/><circle class="c" cx="84.17" cy="67.59" r="1.42"/><circle class="c" cx="63.87" cy="108.4" r="1.42"/><circle class="c" cx="60.96" cy="162.99" r="1.42"/><circle class="c" cx="181.26" cy="173.21" r="1.42"/><circle class="c" cx="153.27" cy="162.99" r="1.42"/><circle class="c" cx="118.39" cy="199.42" r="1.42"/><circle class="c" cx="120.18" cy="174.1" r="1.42"/><circle class="c" cx="116.6" cy="131.1" r="1.42"/><circle class="c" cx="78.8" cy="175" r="1.42"/><circle class="c" cx="89.46" cy="121.42" r="1.42"/><circle class="c" cx="156.85" cy="61" r="1.42"/><circle class="c" cx="126.79" cy="43.9" r="2.36"/><circle class="c" cx="89.46" cy="53.45" r="1.42"/><circle class="c" cx="59.17" cy="78.57" r="1.42"/><circle class="c" cx="196.81" cy="157.51" r="1.42"/><circle class="c" cx="156.85" cy="188.05" r="2.84"/><circle class="c" cx="177.68" cy="150.47" r="2.84"/><circle class="c" cx="94.15" cy="146.89" r="2.84"/><circle class="c" cx="55.59" cy="125" r="2.84"/><circle class="c" cx="94.15" cy="184.47" r="2.84"/><circle class="e" cx="125" cy="125" r="116.59"/><g><path class="h" d="m209.19,98.02c0,24.11-19.55,43.67-43.67,43.67-4.04,0-7.96-.55-11.68-1.58,18.44-5.1,31.99-22.01,31.99-42.08s-13.55-36.99-31.99-42.09c3.72-1.03,7.64-1.58,11.68-1.58,24.11,0,43.67,19.55,43.67,43.68Z"/><path class="f" d="m185.83,98.02c0,20.07-13.55,36.98-31.99,42.08-18.45-5.1-32-22.01-32-42.08s13.55-36.99,32-42.09c18.44,5.1,31.99,22.02,31.99,42.09Z"/></g><g><circle class="c" cx="63.88" cy="75.65" r="1.93"/><circle class="c" cx="54.51" cy="143.37" r="1.93"/><circle class="c" cx="139.18" cy="161.51" r="1.93"/><circle class="c" cx="107.63" cy="102.72" r="1.93"/><circle class="c" cx="105.2" cy="73.21" r="1.93"/><circle class="c" cx="68.75" cy="52.04" r="1.93"/><circle class="c" cx="41.12" cy="107.59" r="1.93"/><circle class="c" cx="37.16" cy="181.9" r="1.93"/><circle class="c" cx="200.91" cy="195.81" r="1.93"/><circle class="c" cx="162.8" cy="181.9" r="1.93"/><circle class="c" cx="115.33" cy="231.49" r="1.93"/><circle class="c" cx="117.77" cy="197.02" r="1.93"/><circle class="c" cx="112.9" cy="138.5" r="1.93"/><circle class="c" cx="61.44" cy="198.25" r="1.93"/><circle class="c" cx="75.96" cy="125.32" r="1.93"/><circle class="c" cx="126.77" cy="19.8" r="3.22"/><circle class="c" cx="75.96" cy="32.8" r="1.93"/><circle class="c" cx="34.73" cy="67" r="1.93"/><circle class="c" cx="222.08" cy="174.45" r="1.93"/><circle class="c" cx="167.68" cy="216.02" r="3.86"/><circle class="c" cx="196.04" cy="164.86" r="3.86"/><circle class="c" cx="82.33" cy="159.99" r="3.86"/><circle class="c" cx="29.85" cy="130.19" r="3.86"/><circle class="c" cx="82.33" cy="211.14" r="3.86"/></g><path class="j" d="m185.58,134.57c.55-1.63.85-3.37.85-5.19,0-8.94-7.25-16.19-16.19-16.19-1.97,0-3.87.35-5.62,1-2.28-6.18-8.22-10.59-15.19-10.59s-13.49,4.85-15.5,11.5c-2.27-1.22-4.87-1.91-7.64-1.91-8.94,0-16.19,7.25-16.19,16.19,0,2.06.39,4.03,1.09,5.85-5.62,2.54-9.54,8.19-9.54,14.76,0,8.94,7.25,16.19,16.19,16.19,3.96,0,7.59-1.42,10.4-3.78,2.81,2.36,6.44,3.78,10.4,3.78s7.26-1.3,10.01-3.47c2.76,2.17,6.23,3.47,10.01,3.47,4.24,0,8.09-1.63,10.98-4.29,2.89,2.66,6.74,4.29,10.98,4.29,8.94,0,16.19-7.25,16.19-16.19,0-7.21-4.72-13.32-11.24-15.41Z"/><path class="g" d="m149.83,116.33c.65-1.93,1.01-4,1.01-6.16,0-10.61-8.6-19.21-19.21-19.21-2.34,0-4.59.42-6.66,1.19-2.7-7.34-9.76-12.57-18.03-12.57s-16,5.75-18.39,13.65c-2.7-1.45-5.78-2.27-9.06-2.27-10.61,0-19.21,8.6-19.21,19.21,0,2.45.46,4.78,1.3,6.94-6.67,3.01-11.32,9.72-11.32,17.51,0,10.61,8.6,19.21,19.21,19.21,4.7,0,9-1.69,12.34-4.49,3.34,2.8,7.64,4.49,12.34,4.49s8.61-1.54,11.88-4.12c3.27,2.58,7.39,4.12,11.88,4.12,5.03,0,9.6-1.93,13.03-5.09,3.42,3.16,8,5.09,13.03,5.09,10.61,0,19.21-8.6,19.21-19.21,0-8.56-5.6-15.81-13.34-18.29Z"/><path class="i" d="m126.78,184.08c-2.76,4.25-8.44,5.46-12.69,2.7s-5.46-8.44-2.7-12.69c2.76-4.25,15.02-15.59,19.27-12.83,4.25,2.76-1.12,18.57-3.88,22.82Z"/><path class="i" d="m149.25,187.95c-2.76,4.25-8.44,5.46-12.69,2.7s-5.46-8.44-2.7-12.69c2.76-4.25,15.02-15.59,19.27-12.83s-1.12,18.57-3.88,22.82Z"/><path class="i" d="m171.72,183.61c-2.76,4.25-8.44,5.46-12.69,2.7-4.25-2.76-5.46-8.44-2.7-12.69,2.76-4.25,15.02-15.59,19.27-12.83,4.25,2.76-1.12,18.57-3.88,22.82Z"/><path class="d" d="m102.39,128.69c-7.48-1.52-14.96-3.03-22.45-4.55,2.28,6.33,4.57,12.67,6.85,19-4.31-.76-8.62-1.51-12.93-2.27,3.88,7.37,7.75,14.73,11.63,22.1-5.52-.85-11.04-1.69-16.56-2.54,13.55,13.08,27.1,26.16,40.65,39.24-4.73-13.72-9.46-27.44-14.19-41.16,5.59,1.31,11.17,2.63,16.76,3.94-3.26-11.25-6.51-22.5-9.77-33.75Z"/></svg>