<?xml version="1.0" encoding="UTF-8"?><svg id="b" xmlns="http://www.w3.org/2000/svg" viewBox="0 0 250 250"><defs><style>.c{fill:#fff;}.d{fill:#00aeef;stroke:#939598;stroke-width:11.54px;}.d,.e{stroke-miterlimit:10;}.e{fill:#808285;stroke:#fff;stroke-width:1.32px;}</style></defs><circle class="d" cx="125" cy="125" r="116.59"/><g><path class="c" d="m61.92,126.04c21.37-11.23,46.07-15.38,69.11-6.46,10.6,3.92,20.05,10.38,30.91,11.87,9.6,1.32,20.79.32,29.19-4.26,6.07-3.24,9.99-8.78,11.87-15.34,1.9-6.19,2.05-12.78-.18-18.8-2.3-6.08-5.83-11.56-11.17-15.04-4.49-2.99-10.14-4-15.59-3.65-11.13.06-20.1,10.58-23.89,20.65,0,0-1.85-.24-1.85-.24-.17-1.51-.18-3.03-.13-4.58.68-15.63,12.22-29.14,28.43-30.86,23.02-3.7,43.13,15.52,44.69,37.96.48,7.13-1.13,14.43-3.99,20.85-7.12,17.12-23.04,26.2-40.79,27.05-12.91.94-25.59-2.06-36.43-8.64-9.94-5.87-18.9-11.31-30.06-13.72-10.77-2.43-22.11-2.07-32.98.22-5.53,1.13-11.01,2.74-16.38,4.69l-.75-1.71h0Z"/><path class="c" d="m66.06,125c12.24-8.94,26.92-16.07,42.45-15.27,7.68.43,15.07,2.85,22.46,4.75,9.11,2.44,18.45,4.72,27.67,6.73,6.23,1.52,12.83,1.87,18.87-.35,5.72-1.9,11.52-5.75,12.71-12.01,1.09-4.97-.02-10.91-4.01-14.31-7.45-6-18.74-1.28-23.31,6.27,0,0-.27-.15-.27-.15.88-1.7,1.93-3.35,3.26-4.77,6.78-7.7,20.85-8.76,25.81,1.54,3.78,7.47,1.89,17.47-5.09,22.37-8.2,5.95-19.08,6.74-28.56,3.96-9.2-2.27-18.54-4.71-27.62-7.35-7.28-2.02-14.46-4.56-22.02-5.15-15.26-1.19-29.84,5.48-42.17,13.97,0,0-.18-.25-.18-.25h0Z"/><path class="c" d="m43.62,129.04c13.69-2.57,28.36-1.32,40.84,5.17,6.42,3.31,11.56,8.52,16.95,13.17,6.76,5.92,15.15,9.41,23.73,11.71,9.92,2.71,20.66,3.46,30.59.46,7.37-1.9,13.34-7.09,20.97-8.5,13.35-1.99,26.13,4.95,28.84,18.76,1.34,6.26.49,13.32-3.74,18.41-6.36,7.72-18.25,8.82-26.66,4-12.78-6.67-11.32-27.19,3.92-29.21,12.35-1.67,17.92,7.83,9.99,17.61,0,0-.25-.19-.25-.19,1.68-2.44,2.92-5.28,3.01-8.17.37-6.47-7.21-8.69-12.46-7.48-9.24,1.45-12.78,11.52-8.71,19.36,4.24,7.26,14.5,9.51,22.08,6.7,5.23-1.9,9.01-6.56,9.95-12.04.96-5.48-.26-11.47-3.19-16.21-4.58-7.28-14.1-10.24-22.36-9.09-6.95,1.17-13.5,6.42-20.77,8.16-7.36,2.14-15.23,2.28-22.77,1.14-11.9-2.08-23.95-6.18-33.07-14.35-5.32-4.74-10.22-9.93-16.53-13.33-12.21-6.62-26.66-8.09-40.3-5.77,0,0-.05-.31-.05-.31h0Z"/></g><path class="e" d="m99.43,158.26l-6.83-1.03-2.88-3.9,1.36-3.12,4.82-.54,5.4,4.31,1.81-2.27-3.14-2.5,3.49-.39-.32-2.88-3.49.39,2.5-3.13-2.27-1.81-4.31,5.4-4.82.54-2.02-2.74,1.94-4.44,6.43-2.52-1.06-2.7-3.73,1.46,1.41-3.22-2.66-1.16-1.41,3.22-1.47-3.73-2.7,1.06,2.52,6.43-1.94,4.44-3.38.38-2.88-3.9,1.03-6.83-2.87-.43-.6,3.96-2.09-2.83-2.33,1.72,2.09,2.83-3.97-.6-.43,2.87,6.83,1.03,2.88,3.9-1.36,3.12-4.82.54-5.4-4.31-1.81,2.27,3.14,2.5-3.49.39.32,2.88,3.49-.39-2.5,3.13,2.27,1.81,4.31-5.4,4.82-.54,2.02,2.74-1.94,4.44-6.43,2.52,1.06,2.7,3.73-1.46-1.41,3.22,2.66,1.16,1.41-3.22,1.46,3.73,2.7-1.06-2.52-6.43,1.94-4.44,3.38-.38,2.88,3.9-1.03,6.83,2.87.43.6-3.96,2.09,2.83,2.33-1.72-2.09-2.83,3.97.6.43-2.87Zm-12.37-6.09l-3.38.38-2.02-2.74,1.36-3.12,3.38-.38,2.02,2.74-1.36,3.12Z"/><path class="e" d="m115.2,193.49l-6.83-1.03-2.88-3.9,1.36-3.12,4.82-.54,5.4,4.31,1.81-2.27-3.14-2.5,3.49-.39-.32-2.88-3.49.39,2.5-3.13-2.27-1.81-4.31,5.4-4.82.54-2.02-2.74,1.94-4.44,6.43-2.52-1.06-2.7-3.73,1.46,1.41-3.22-2.66-1.16-1.41,3.22-1.47-3.73-2.7,1.06,2.52,6.43-1.94,4.44-3.38.38-2.88-3.9,1.03-6.83-2.87-.43-.6,3.96-2.09-2.83-2.33,1.72,2.09,2.83-3.97-.6-.43,2.87,6.83,1.03,2.88,3.9-1.36,3.12-4.82.54-5.4-4.31-1.81,2.27,3.14,2.5-3.49.39.32,2.88,3.49-.39-2.5,3.13,2.27,1.81,4.31-5.4,4.82-.54,2.02,2.74-1.94,4.44-6.43,2.52,1.06,2.7,3.73-1.46-1.41,3.22,2.66,1.16,1.41-3.22,1.46,3.73,2.7-1.06-2.52-6.43,1.94-4.44,3.38-.38,2.88,3.9-1.03,6.83,2.87.43.6-3.96,2.09,2.83,2.33-1.72-2.09-2.83,3.97.6.43-2.87Zm-12.37-6.09l-3.38.38-2.02-2.74,1.36-3.12,3.38-.38,2.02,2.74-1.36,3.12Z"/><path class="e" d="m150.75,180.65l-6.83-1.03-2.88-3.9,1.36-3.12,4.82-.54,5.4,4.31,1.81-2.27-3.14-2.5,3.49-.39-.32-2.88-3.49.39,2.5-3.13-2.27-1.81-4.31,5.4-4.82.54-2.02-2.74,1.94-4.44,6.43-2.52-1.06-2.7-3.73,1.46,1.41-3.22-2.66-1.16-1.41,3.22-1.47-3.73-2.7,1.06,2.52,6.43-1.94,4.44-3.38.38-2.88-3.9,1.03-6.83-2.87-.43-.6,3.96-2.09-2.83-2.33,1.72,2.09,2.83-3.97-.6-.43,2.87,6.83,1.03,2.88,3.9-1.36,3.12-4.82.54-5.4-4.31-1.81,2.27,3.14,2.5-3.49.39.32,2.88,3.49-.39-2.5,3.13,2.27,1.81,4.31-5.4,4.82-.54,2.02,2.74-1.94,4.44-6.43,2.52,1.06,2.7,3.73-1.46-1.41,3.22,2.66,1.16,1.41-3.22,1.46,3.73,2.7-1.06-2.52-6.43,1.94-4.44,3.38-.38,2.88,3.9-1.03,6.83,2.87.43.6-3.96,2.09,2.83,2.33-1.72-2.09-2.83,3.97.6.43-2.87Zm-12.37-6.09l-3.38.38-2.02-2.74,1.36-3.12,3.38-.38,2.02,2.74-1.36,3.12Z"/><path class="e" d="m110.52,93.86l6.9-.36,3.6,3.24-.71,3.33-4.61,1.5-6.16-3.13-1.32,2.58,3.57,1.82-3.34,1.09.9,2.76,3.34-1.09-1.82,3.57,2.58,1.32,3.14-6.16,4.61-1.5,2.53,2.28-1.01,4.74-5.79,3.76,1.58,2.43,3.36-2.18-.73,3.44,2.84.6.73-3.44,2.19,3.36,2.43-1.58-3.76-5.79,1.01-4.74,3.24-1.05,3.6,3.24.36,6.9,2.89-.15-.21-4,2.61,2.35,1.94-2.16-2.61-2.35,4-.21-.15-2.89-6.9.36-3.6-3.24.71-3.33,4.61-1.5,6.16,3.13,1.32-2.58-3.57-1.82,3.34-1.09-.9-2.76-3.34,1.09,1.82-3.57-2.58-1.32-3.14,6.16-4.61,1.5-2.53-2.28,1.01-4.74,5.79-3.76-1.58-2.43-3.36,2.18.73-3.44-2.84-.6-.73,3.44-2.18-3.36-2.43,1.58,3.76,5.79-1.01,4.74-3.23,1.05-3.6-3.24-.36-6.9-2.89.15.21,4-2.61-2.35-1.94,2.16,2.61,2.35-4,.21.15,2.89Zm13.34,3.48l3.23-1.05,2.53,2.28-.71,3.33-3.24,1.05-2.53-2.28.71-3.33Z"/><path class="e" d="m87.99,62.51l6.9-.36,3.6,3.24-.71,3.33-4.61,1.5-6.16-3.13-1.32,2.58,3.57,1.82-3.34,1.09.9,2.76,3.34-1.09-1.82,3.57,2.58,1.32,3.14-6.16,4.61-1.5,2.53,2.28-1.01,4.74-5.79,3.76,1.58,2.43,3.36-2.18-.73,3.44,2.84.6.73-3.44,2.19,3.36,2.43-1.58-3.76-5.79,1.01-4.74,3.24-1.05,3.6,3.24.36,6.9,2.89-.15-.21-4,2.61,2.35,1.94-2.16-2.61-2.35,4-.21-.15-2.89-6.9.36-3.6-3.24.71-3.33,4.61-1.5,6.16,3.13,1.32-2.58-3.57-1.82,3.34-1.09-.9-2.76-3.34,1.09,1.82-3.57-2.58-1.32-3.14,6.16-4.61,1.5-2.53-2.28,1.01-4.74,5.79-3.76-1.58-2.43-3.36,2.18.73-3.44-2.84-.6-.73,3.44-2.18-3.36-2.43,1.58,3.76,5.79-1.01,4.74-3.23,1.05-3.6-3.24-.36-6.9-2.89.15.21,4-2.61-2.35-1.94,2.16,2.61,2.35-4,.21.15,2.89Zm13.34,3.48l3.23-1.05,2.53,2.28-.71,3.33-3.24,1.05-2.53-2.28.71-3.33Z"/><path class="e" d="m55.74,82.23l6.9-.36,3.6,3.24-.71,3.33-4.61,1.5-6.16-3.13-1.32,2.58,3.57,1.82-3.34,1.09.9,2.76,3.34-1.09-1.82,3.57,2.58,1.32,3.14-6.16,4.61-1.5,2.53,2.28-1.01,4.74-5.79,3.76,1.58,2.43,3.36-2.18-.73,3.44,2.84.6.73-3.44,2.19,3.36,2.43-1.58-3.76-5.79,1.01-4.74,3.24-1.05,3.6,3.24.36,6.9,2.89-.15-.21-4,2.61,2.35,1.94-2.16-2.61-2.35,4-.21-.15-2.89-6.9.36-3.6-3.24.71-3.33,4.61-1.5,6.16,3.13,1.32-2.58-3.57-1.82,3.34-1.09-.9-2.76-3.34,1.09,1.82-3.57-2.58-1.32-3.14,6.16-4.61,1.5-2.53-2.28,1.01-4.74,5.79-3.76-1.58-2.43-3.36,2.18.73-3.44-2.84-.6-.73,3.44-2.18-3.36-2.43,1.58,3.76,5.79-1.01,4.74-3.23,1.05-3.6-3.24-.36-6.9-2.89.15.21,4-2.61-2.35-1.94,2.16,2.61,2.35-4,.21.15,2.89Zm13.34,3.48l3.23-1.05,2.53,2.28-.71,3.33-3.24,1.05-2.53-2.28.71-3.33Z"/></svg>