<?xml version="1.0" encoding="UTF-8"?><svg id="b" xmlns="http://www.w3.org/2000/svg" viewBox="0 0 250 250"><defs><style>.c{fill:#808285;}.d{fill:#231f20;}.e{fill:#414042;}</style></defs><g><path class="e" d="m246.24,98.04c-1.48-15.63-2.89-24.75-9.43-40.76-5.41-11.66-52.17-20.87-109.84-21.08-58.97-.21-108.11,9.06-113.75,21.06-6.04,15.94-7.07,20.11-9.19,37.16l-.25,3.67c0-.05,0-.11.01-.16,1.17-13.92,56.39-25.01,123.34-24.76,65.7.24,118.28,11.3,119.11,24.87"/><g><path class="e" d="m213.99,143.26c4.14-8.76,7.06-18.19,8.54-28.08-2.93-26.52-184.25-30.26-206.4-4.26-1.59,1.86-1.67,3.27-1.61,4.67,2.33,12.16,3.34,16.62,9.02,29.47-.42-.82-.6-1.65-.53-2.49.92-10.97,44.42-19.7,97.16-19.51,52.74.19,94.75,9.24,93.83,20.2"/><path class="e" d="m213.99,143.26c-.05.62-.24,1.23-.55,1.83,4.96-11.54,6.51-15.49,9.04-29.55l.04-.36c-1.48,9.89-4.39,19.32-8.54,28.08"/></g><g><path class="e" d="m195.11,176.6c5.04-4.29,9.56-9.14,13.46-14.46.68-8.07-30.23-14.72-69.04-14.86-38.81-.14-70.81,6.29-71.49,14.35-.07.86.21,1.7.83,2.53l1.4,1.84c5.09,6.02,6.4,7.5,13.14,13.45-1.33-1.04-2-2.13-1.91-3.26.55-6.52,26.42-11.72,57.79-11.6,31.37.11,56.36,5.49,55.81,12.02"/><path class="e" d="m195.11,176.6c-.08.99-.74,1.94-1.91,2.85,6.19-5.49,6.56-5.81,10.28-10,1.27-1.57,3.01-3.62,4.22-5.24.52-.68.82-1.37.88-2.07-3.9,5.32-8.43,10.17-13.46,14.46"/></g><g><path class="e" d="m158.21,198.56c4.6-1.58,8.99-3.58,13.14-5.95.38-4.47-16.76-8.16-38.27-8.24s-39.26,3.48-39.63,7.96c-.09,1.12.91,2.19,2.79,3.16,2.21,1.09,5.17,2.49,7.43,3.46,4.28,1.61,4.63,1.74,7.64,2.61l.42.12c-3.32-.92-5.25-2.07-5.15-3.31.25-2.96,12.01-5.32,26.26-5.27,14.25.05,25.61,2.5,25.36,5.46"/><path class="e" d="m158.21,198.56c-.1,1.17-2,2.25-5.14,3.12,4.1-1.24,4.44-1.34,6.98-2.31,5.44-2.28,5.65-2.37,8.54-3.9,1.7-.89,2.67-1.85,2.76-2.86-4.15,2.37-8.55,4.37-13.14,5.95"/></g><path class="e" d="m118.51,211.36c6.08.02,12.06-.39,17.91-1.22.17-2.06-7.7-3.75-17.59-3.79-9.89-.04-18.05,1.6-18.22,3.66s7.7,3.75,17.59,3.79c9.89.04,18.05-1.6,18.22-3.66-5.84.82-11.82,1.24-17.91,1.22"/><g><path class="d" d="m246.23,99.09c.02.26.01.52,0,.78-.74-13.68-3.84-26.76-8.91-38.85.08-.91-.1-1.8-.51-2.68,4.39,11.59,8.18,21.6,9.43,40.76"/><path class="d" d="m246.22,99.86c-1.17,13.92-56.39,25.01-123.34,24.76-66.69-.24-119.86-11.64-119.12-25.48l.25-3.67c2.14-17.12,3.17-21.29,9.19-37.16-.29.62-.47,1.25-.52,1.89-1.08,12.9,48.32,23.53,110.35,23.76,62.03.23,113.18-10.05,114.27-22.94,5.08,12.09,8.18,25.17,8.91,38.85"/></g><path class="d" d="m213.43,146c-5.29,10.09-46.83,17.86-96.61,17.68-48.69-.18-88.23-7.9-93.29-17.71-5.17-12.04-6.62-16.2-9.02-29.47,9.62,26.37,191.64,28.1,207.18,1.97.33-.56.66-1.38.78-2.02-1.76,9.2-3.42,17.89-9.04,29.55"/><path class="d" d="m203.48,170.2c-5.55,5.92-6,6.4-10.28,10-6.58,5.12-29.25,8.85-55.88,8.75-25.95-.09-47.52-3.79-53.9-8.76-6.04-5.35-7.56-6.84-13.14-13.45l-1.4-1.84c5.17,6.89,33.54,12.21,68.21,12.34s65.17-5.21,70.61-12.28c-1.26,1.57-2.87,3.74-4.22,5.24"/><path class="d" d="m160.05,200.04c-4.25,1.52-4.42,1.58-6.98,2.31-4.8,1.33-12.5,2.18-21.12,2.15-8.29-.03-15.6-.87-20.21-2.15l-.42-.12c-4.13-1.28-4.66-1.44-7.64-2.61-2.25-.99-5.24-2.36-7.43-3.46,5.67,2.93,19.34,5.02,35.48,5.08,16.65.06,31.05-2.06,36.88-5.1-5.11,2.52-5.89,2.91-8.54,3.9"/></g><path class="c" d="m166.92,200.85c1.92-3.06,1.87-6.79.21-9.72.72-.61,1.35-1.34,1.88-2.18,1.05-1.68,1.51-3.56,1.44-5.4,1.99-.68,3.78-2.02,4.98-3.94,2.78-4.44,1.44-10.29-3-13.07-1.88-1.18-4.02-1.61-6.07-1.38-.34-2.72-1.86-5.28-4.37-6.85-4.44-2.78-10.29-1.44-13.07,3-1.4,2.24-1.75,4.84-1.19,7.23-.36-.31-.73-.6-1.14-.85-4.44-2.78-10.29-1.44-13.07,3-2.34,3.73-1.75,8.45,1.13,11.52-1.49.75-2.8,1.9-3.75,3.41-.77,1.23-1.21,2.56-1.37,3.91-3.09.06-6.09,1.62-7.85,4.44-2.78,4.44-1.44,10.29,3,13.07,2.43,1.52,5.28,1.8,7.82,1.02.53.55,1.12,1.05,1.8,1.48,3.47,2.18,7.8,1.82,10.86-.56.65.8,1.43,1.52,2.35,2.1,4.44,2.78,10.29,1.44,13.07-3,.64-1.02,1.05-2.12,1.27-3.24,2.03-.67,3.85-2.02,5.07-3.97Z"/><path class="c" d="m112.53,184.01c-.71-1.01-1.54-1.93-2.46-2.75,1.7-2.49,2.7-5.5,2.7-8.74,0-8.56-6.94-15.49-15.49-15.49-.04,0-.08,0-.13,0,.08-.62.13-1.24.13-1.88,0-8.56-6.94-15.49-15.49-15.49-2.73,0-5.29.71-7.52,1.95-2.76-2.55-6.44-4.12-10.5-4.12-8.56,0-15.49,6.94-15.49,15.49,0,4.81,2.19,9.1,5.62,11.94-2.6,2.77-4.2,6.48-4.2,10.58,0,8.56,6.94,15.49,15.49,15.49,1.48,0,2.9-.22,4.25-.6.6.79,1.27,1.52,2,2.18,1.86,2.79,4.61,4.92,7.84,6.04.26,8.33,7.08,15,15.47,15,2.71,0,5.26-.7,7.47-1.92,2.63,2.05,5.92,3.28,9.51,3.28,8.56,0,15.49-6.94,15.49-15.49s-6.52-15.04-14.7-15.45Z"/></svg>