<?xml version="1.0" encoding="UTF-8"?><svg id="b" xmlns="http://www.w3.org/2000/svg" viewBox="0 0 250 250"><defs><style>.c{fill:#fff;}.d{fill:#58595b;stroke:#939598;stroke-miterlimit:10;stroke-width:11.54px;}</style></defs><circle class="d" cx="125" cy="124.72" r="116.59" transform="translate(-51.58 124.92) rotate(-45)"/><path class="c" d="m118.65,37.75c-6.88,3.28-26.1,13.61-33.89,34.76-10.53,28.58,3.95,65.72,37.8,87.34-1.42-4.01-3.23-10.76-2.61-19.12.51-6.84.99-13.36,4.49-15.19,7.17-3.74,27.58,11.91,35.05,30.83,11.67,29.54-10.78,60.55-13.9,64.74,4.89-1.94,11.95-5.35,19.12-11.3,2.72-2.26,33.61-28.77,26.07-65.18-.58-2.79-6.29-28.59-26.94-39.11-13.72-6.99-22.03-1.1-35.63-10.43-2.83-1.94-15.01-10.29-17.82-26.07-2.93-16.52,6.56-29.11,8.26-31.29Z"/><path class="c" d="m139.62,44.71c-4.41,2.92-6.94,6.12-8.45,8.62-8.91,14.76-1.78,37.56,12.05,48.96,4.16,3.43,8.32,5.33,11.21,6.39-3.3-4.98-5.56-9.36-7.02-12.49-2.79-5.97-9.95-21.73-8.84-42.18.22-3.97.69-7.2,1.06-9.3Z"/><path class="c" d="m129.62,208.89c5.06-2.08,8.37-5.12,10.49-7.65,12.57-14.94,11.71-44.94,1.31-63.36-3.13-5.54-6.66-9.22-9.18-11.47,1.88,7.13,2.91,13.19,3.5,17.48,1.13,8.16,3.89,29.64-2.62,54.07-1.26,4.74-2.59,8.5-3.5,10.92Z"/><path class="c" d="m101.23,162.78c-2.63,2.31-4.01,4.65-4.77,6.42-4.52,10.49,2.21,24.82,12.32,31.06,3.04,1.88,5.94,2.75,7.94,3.19-2.61-2.97-4.49-5.64-5.74-7.57-2.37-3.67-8.49-13.37-9.6-26.9-.22-2.63-.19-4.79-.14-6.2Z"/><path class="c" d="m118.13,164.27c-4.94-1.93-8.49-1.44-10.4-.93-9.34,2.48-16.26,15.09-15.52,31.26-6.42-8.4-21.21-30.09-23.95-61.87-2.69-31.16,7.71-54.67,12.52-64.12-1.4,9.79-3.42,33.6,8.81,59.46,8.76,18.52,21.08,30.17,28.53,36.2Z"/><path class="c" d="m112.26,164.2c-.61-.3-5.47,4.8-6.93,11.88-2.1,10.23,3.38,22.2,12.64,27.3,2.48,1.36,4.78,1.99,6.37,2.31,1.33-.88,3.17-2.27,4.96-4.33,7.67-8.8,6.52-20.59,6.19-23.97-1.56-16.07-13.69-25.77-16.31-27.78.86,1.41,2.1,3.57,3.37,6.32,4.94,10.72,5.17,19.23,5.19,21.27.04,4.5-.69,7.78-2.08,10.66-.27.56-.52,1.01-.69,1.3-1.64-.46-4.06-1.34-6.55-3.14-1.18-.86-7.14-5.37-7.91-12.3-.6-5.38,2.26-9.27,1.74-9.53Z"/></svg>