<?xml version="1.0" encoding="UTF-8"?><svg id="b" xmlns="http://www.w3.org/2000/svg" viewBox="0 0 250 250"><defs><style>.c{fill:#fff;}.d{fill:#fbb040;stroke:#939598;stroke-miterlimit:10;stroke-width:11.54px;}</style></defs><circle class="d" cx="125" cy="125" r="116.59"/><g><g><path class="c" d="m34.96,108.2c21.55-11.32,46.44-15.51,69.67-6.51,10.69,3.95,20.21,10.46,31.16,11.96,9.68,1.33,20.96.33,29.42-4.29,6.12-3.27,10.08-8.86,11.96-15.46,1.91-6.24,2.07-12.89-.18-18.95-2.32-6.12-5.88-11.66-11.26-15.16-4.53-3.01-10.23-4.04-15.71-3.68-11.22.06-20.26,10.67-24.08,20.81,0,0-1.86-.24-1.86-.24-.17-1.52-.18-3.06-.13-4.62.69-15.76,12.32-29.38,28.66-31.11,23.21-3.73,43.48,15.64,45.05,38.27.48,7.19-1.14,14.54-4.02,21.02-7.17,17.26-23.23,26.42-41.13,27.27-13.01.94-25.79-2.08-36.73-8.71-10.02-5.92-19.05-11.4-30.3-13.83-10.86-2.45-22.29-2.09-33.25.22-5.58,1.14-11.1,2.76-16.52,4.73,0,0-.75-1.72-.75-1.72h0Z"/><path class="c" d="m36.58,98.03c13.14-7.8,28.56-13.54,44.07-11.25,7.66,1.17,14.85,4.31,22.08,6.92,7.18,2.68,14.4,5.22,21.66,7.64,3.15.97,7.72,2.65,10.87,3.3,7.13,1.62,14.8.62,21.1-3.03,6.28-3.49,8.61-11.64,6.35-18.22-2.25-7.3-11.02-9.48-17.68-6.9-3.55,1.25-6.6,3.62-8.96,6.57,0,0-.26-.18-.26-.18,4.98-8.61,18.03-12.87,26-5.67,4.68,4.39,5.6,11.53,3.89,17.47-1.73,6.15-7.31,10.5-13.26,12.17-10.55,3.5-19.02.53-28.87-3.14-7.24-2.57-14.44-5.28-21.58-8.11-7.11-2.73-14.07-5.96-21.6-7.27-15.2-2.65-30.47,2.64-43.66,9.98,0,0-.16-.27-.16-.27h0Z"/><path class="c" d="m47.07,119.34c13.44-4.05,28.29-4.38,41.49.79,6.79,2.62,12.5,7.3,18.41,11.38,7.41,5.2,16.19,7.8,25.05,9.19,10.24,1.65,21.08,1.25,30.71-2.83,7.19-2.7,12.61-8.54,20.1-10.78,13.17-3.43,26.72,2.15,30.92,15.7,2.01,6.13,1.93,13.3-1.77,18.86-5.54,8.42-17.35,10.8-26.3,6.88-13.53-5.31-14.27-26.03.79-29.7,6-1.78,14.69.36,14.69,7.85.06,3.18-1.14,6.16-2.77,8.72,0,0-.27-.16-.27-.16,1.42-2.63,2.36-5.6,2.14-8.51-1.02-9.91-15.81-7.91-20.17-1.52-3.22,4.49-2.82,11.18.23,15.7,5.03,6.82,15.55,7.97,22.85,4.34,5.04-2.47,8.32-7.54,8.68-13.14.37-5.6-1.5-11.47-4.94-15.9-5.38-6.81-15.24-8.74-23.39-6.71-6.84,1.92-12.84,7.89-19.94,10.41-7.15,2.94-15.02,3.92-22.7,3.59-12.15-.81-24.67-3.62-34.69-10.82-5.84-4.17-11.31-8.86-18-11.58-12.95-5.32-27.59-5.24-41.01-1.45,0,0-.09-.3-.09-.3h0Z"/></g><path class="c" d="m42.73,125.5c12.6,11.38,28.94,18.15,46.01,15.63,5.54-.6,11.29-1.84,17.48-1.67,6.17.05,12.38,1.99,17.81,4.6,8.38,3.95,15.84,11.28,19.26,20.14,3.7,9.03,4.74,19.7.16,28.72-6.36,12.46-21.4,17.93-34.78,16.29-15.82-1.92-25.52-14.26-25.14-29.72.17-7.27,3.34-15.16,9.83-19.26,9.9-6.16,24.3-4.26,30.98,5.55,5.24,7.58,2.53,18.8-3.68,24.29,0,0-.94-.73-.94-.73,5.16-9.01,3.49-21.28-7.99-23.22-6.5-1.02-13.34,1.09-15.46,7.26-2.01,5.78-.53,13.48,3.23,18.23,8.45,9.79,28.94,8.44,35.54-3.17,2.24-3.86,2.9-8.82,2.27-13.82-1.21-10.37-7.22-19.42-16.51-24.43-10.84-6.26-19.54-5.13-31.69-4.28-18.25,1.38-34.85-6.47-47.22-19.56,0,0,.82-.86.82-.86h0Z"/></g></svg>