<?xml version="1.0" encoding="UTF-8"?><svg id="b" xmlns="http://www.w3.org/2000/svg" viewBox="0 0 250 250"><defs><style>.c{fill:#fff;}.d{fill:#fff200;stroke:#fff;stroke-width:.13px;}.d,.e{stroke-miterlimit:10;}.e{fill:#fbb040;stroke:#939598;stroke-width:11.54px;}</style></defs><circle class="e" cx="125" cy="125" r="116.59"/><g><g><path class="c" d="m78.51,142.59c14.57-7.75,32.21-10.67,47.92-4.48,3.95,1.48,7.65,3.38,11.14,4.97,9.52,4.61,21.23,5.06,30.53.3,8.11-4.29,11.06-15.46,8.1-23.67-2.07-5.55-5.81-10.47-11.58-12.22-8.64-2.48-16.01.59-20.92,8.39-1.02,1.58-1.86,3.33-2.61,5.19l-1.28-.17c-.43-4.18.38-8.62,2.42-12.69,4.37-9.08,14.6-13.27,24.59-11.94,12.86,1.62,22.81,13.81,23.6,26.38.44,7.51-2.08,14.63-6.3,20.73-8.55,11.97-24.56,14.39-37.94,11.48-8.37-1.82-15.07-7.21-22.31-10.73-3.37-1.65-6.92-2.92-10.61-3.77-11.41-2.57-23.19-.59-34.23,3.41,0,0-.52-1.18-.52-1.18h0Z"/><path class="c" d="m79.62,135.6c11.31-6.89,25.25-10.85,38.06-5.71,7.45,2.69,14.82,5.53,22.35,7.98,4.75,1.58,9.94,3.47,14.97,2.59,8.05-1.13,13.88-6.39,11.39-14.94-2.86-8.15-14.07-6.21-18.33-.23,0,0-.18-.12-.18-.12.72-1.12,1.55-2.18,2.57-3.08,9.32-7.89,21.34-.97,17.99,11.19-2.67,8.56-13.64,10.71-21.38,8.73-7.61-2.26-15.05-5.25-22.44-8.1-4.88-1.87-9.7-4.11-14.86-5-5.12-.89-10.44-.49-15.5.84-5.08,1.32-9.92,3.47-14.53,6.02,0,0-.11-.19-.11-.19h0Z"/><path class="c" d="m86.83,150.25c9.94-3,21.18-3.06,30.71,1.51,5.65,2.73,10.11,7.37,15.85,9.9,3.74,1.66,7.8,2.6,11.87,3.29,10.45,1.83,20.58-.14,29.13-6.52,7-5.15,18.21-4.8,23.95,2.15,4.12,5.15,5.66,12.99,1.92,18.77-5.04,7.71-17.99,8.1-23.32.52-2.41-3.82-2.65-9.09.19-12.74,2.82-3.45,7.9-4.76,12.08-3.25,4.8,1.81,4.14,7.69,1.7,11.18,0,0-.18-.11-.18-.11.98-1.81,1.62-3.85,1.47-5.86-.22-4.49-5.61-5.46-9.14-4.24-6.24,1.63-7.96,8.97-4.57,13.99,4.52,6.15,15.82,5.74,19.91-.71,3.22-4.93,1.82-11.8-1.63-16.27-2.44-3.12-6.29-4.74-10.2-5.06-1.97-.17-3.99-.07-5.89.45-3.81,1.01-7,3.89-10.81,5.83-7.56,4-16.52,4.58-24.81,3.09-4.14-.74-8.28-1.76-12.12-3.53-5.74-2.63-10.14-7.36-15.74-10.2-9.33-4.66-20.36-4.78-30.31-1.98,0,0-.06-.21-.06-.21h0Z"/></g><path class="c" d="m83.85,154.49c8.56,7.78,20.02,12.51,31.65,10.75,3.81-.41,7.77-1.27,12.02-1.15,8.61.35,16.94,4.38,22.28,11.27,5.5,7.68,7.69,18.7,2.44,27.06-7.47,11.43-26.83,13.61-35.9,2.92-6.23-7.89-6.4-21.03,2.34-26.97,8.17-5.32,21.82-1.6,23.15,8.8.54,4.64-1.41,8.94-4.37,11.73l-.64-.5c3.66-6.31,2.2-14.73-5.49-15.98-4.48-.68-9.17.73-10.64,5.01-1.38,3.96-.39,9.29,2.23,12.53,5.04,5.69,14.83,5.67,20.96,1.62,7.23-5.06,6.16-15.81,1.5-23.06-3.91-5.8-11.11-9.73-18.08-10.35-3.63-.36-7.5.18-11.53.36-4.02.24-8.2-.05-12.15-1.07-7.89-1.91-14.78-6.64-20.33-12.39,0,0,.57-.59.57-.59h0Z"/></g><g><path class="c" d="m149.83,74.06c.65-1.93,1.01-4,1.01-6.16,0-10.61-8.6-19.21-19.21-19.21-2.34,0-4.59.42-6.66,1.19-2.7-7.34-9.76-12.57-18.03-12.57s-16,5.75-18.39,13.65c-2.7-1.45-5.78-2.27-9.06-2.27-10.61,0-19.21,8.6-19.21,19.21,0,2.45.46,4.78,1.3,6.94-6.67,3.01-11.32,9.72-11.32,17.51,0,10.61,8.6,19.21,19.21,19.21,4.7,0,9-1.69,12.34-4.49,3.34,2.8,7.64,4.49,12.34,4.49s8.61-1.54,11.88-4.12c3.27,2.58,7.39,4.12,11.88,4.12,5.03,0,9.6-1.93,13.03-5.09,3.42,3.16,8,5.09,13.03,5.09,10.61,0,19.21-8.6,19.21-19.21,0-8.56-5.6-15.81-13.34-18.29Z"/><path class="d" d="m97.2,100.9c-7.48-1.52-14.96-3.03-22.45-4.55,2.28,6.33,4.57,12.67,6.85,19-4.31-.76-8.62-1.51-12.93-2.27,3.88,7.37,7.75,14.73,11.63,22.1-5.52-.85-11.04-1.69-16.56-2.54,13.55,13.08,27.1,26.16,40.65,39.24-4.73-13.72-9.46-27.44-14.19-41.16,5.59,1.31,11.17,2.63,16.76,3.94-3.26-11.25-6.51-22.5-9.77-33.75Z"/></g></svg>