<?xml version="1.0" encoding="UTF-8"?><svg xmlns="http://www.w3.org/2000/svg" viewBox="0 0 68.35 82.45"><defs><style>.d,.e,.f{fill:#fff;}.g{fill:none;}.g,.e{stroke:#fff;stroke-width:.28px;}.g,.e,.f{stroke-miterlimit:10;}.f{stroke:#000;stroke-width:.14px;}</style></defs><g id="b"><path d="m56.04,12.54c-.84,2.1-3.08,6.73-3.22,7.01-.14.27-2.92,1.47-3.85,1.54-1.01-.88-2.07-1.54-3.05-1.96-.06-.18-.09-.43-.09-.73,0-.55.11-1.27.28-2.13,1.4-.59,5.06-3.35,5.86-4.56.84-1.26,4.06-7.01,4.06-7.71,1.12,3.08.84,6.44,0,8.55Z"/><path d="m37.55,15.76c-5.89-2.94-10.88-3.14-17.96.95l-.05.02c-2.35-.75-4.53-1.84-6.09-3.35.5,1.39,1.35,3.4,2.87,5.33v.05c-4.88,2.95-11.64,5.61-15.9,4.71,3.78,2.07,7.16,4.08,11.95,4.77l-.03.15c-1.81,1.97-3.21,4.06-3.93,6.01-2.52,6.87-4.9,14.85-6.87,16.95.89-.39,3.45-1.61,6.27-3.18l.04.23c-.84,3.64-4.95,11.19-7.85,13.17,2.87-.52,8.14-3.44,12.27-7.25l.38-.37c-.29,1.37-.67,2.75-1.17,3.84-1.54,3.36-4.34,9.11-5.32,9.95,3.09-.86,6.4-4.14,9.43-9.93l-.08.38c-.4,3.78-1.38,7.79-3.32,10.95,0,0,6.16-3.22,8.69-8.97l2.31-9.6-.28-9.53,2.66-7.57,6.87-6.87,3.78-3.22,2.59-1.89-.42-5.74h-.84Z"/><path class="d" d="m44.55,23.61c.87-1.22,3.04-.86,4.06,0-1.24-.49-2.92-.87-4.06,0h0Z"/><path class="d" d="m49.46,23.89c.79.12,1.65.54,1.88,1.38.1.71.2,1.84-.48,2.26.31-.27.3-.68.3-1.06-.02-.39.02-.79-.09-1.13-.18-.73-.91-1.13-1.62-1.46h0Z"/><path class="d" d="m49.67,30.12c.06.25.4.3.59.41.14.05.22.2.07.28,0,0-.03,0-.03,0l-.5.03c-.17,0-.29.04-.42.12l-.12-.25c.3-.15.73-.05,1.04-.04,0,0-.03,0-.03,0,.03-.03.02.02.02,0-.18-.19-.58-.27-.62-.57h0Z"/><polygon class="d" points="50.72 26.97 49.55 27.86 49.4 27.62 50.72 26.97 50.72 26.97"/><path class="e" d="m49.74,29.49c-.06.48-.17.97-.42,1.36-.12.06-.26.13-.56.18-.84.14-1.68-.28-2.52-.7-.53-.27-.56-.42-2.24-.42,2.29-.33,3.98-1.25,5.48-2.17.21.52.34,1.13.26,1.75Z"/><path class="g" d="m49.32,30.85s-.02.04-.04.05"/><path class="g" d="m49.48,27.74s0-.02-.01-.03"/><path class="d" d="m34.45,41.87c-.9,2.23-1.01,4.53-.78,6.89.25,5.94,2.54,11.41,3.92,17.13.19,1.17.23,2.41-.18,3.53.26-1.16.14-2.34-.15-3.47-1.75-5.61-4.1-11.17-4.12-17.17-.12-2.36.14-4.82,1.32-6.92h0Z"/><path class="d" d="m65.29,39.86c-.43.32-1.02.58-1.25.94,0,0-.12.34-.12.34-.43,1.13-.94,2.24-1.71,3.2.15-1.23.58-2.33,1.09-3.41.33-.92,1.18-1.01,2-1.07h0Z"/><path class="d" d="m66.34,43.01c-.06-.44-.04-.96-.25-1.35-.54.72-1,1.99-1.21,2.97-.1.53-.2,1.09.06,1.6-.43-.42-.43-1.09-.38-1.65.19-1.16.49-2.35,1.37-3.18.77-.25.49,1.21.41,1.61h0Z"/><path class="d" d="m30.47,66.27c-1.37-2.97-1.9-6.25-2.55-9.43-1.89-9.53-1.7-20.09,3.67-28.54-4.47,8.83-4.59,18.84-3.03,28.44.5,3.2.88,6.46,1.91,9.53h0Z"/><path class="d" d="m46.52,40.21c-3.04,4.79-8.61,4.78-12.98,1.82-3.28-1.96-4.66-6.17-3.94-9.79.43-2.02,1.88-4.97,4.32-4.64-1.07-.13-1.99.65-2.55,1.48-1.42,1.92-1.64,4.47-1.2,6.74.8,4.76,5.76,7.78,10.33,7.75,2.41-.09,4.5-1.55,6.03-3.36h0Z"/><path class="f" d="m43.71,18.42s.7-5.32,1.82-7.57,2.88-5.5,3.22-6.02c1.26-1.96.42-2.24-1.4-.42s-5.74,5.88-5.88,7.01.98,5.18.84,6.73c.56.28,1.4.28,1.4.28Z"/></g><g id="c"><path d="m68.35,42.18c0,.53-.15,1.22-.54,2.09-1.12,2.52-1.12,4.2-1.26,4.76s-1.4,2.1-2.66,1.82-1.78-.02-2.52.56c-1.26.98-1.82.7-4.48-1.54-2.83-2.38-3.84-3.26-4.9-3.92-2.94-1.82-4.06-2.52-8.41-1.96l-.49.06-2.19.28-.55.07s-.79,1.41-.8,3.38c0,.04,0,.07,0,.1.01,1.53.51,3.39,2.2,5.2,2.03,2.17,3.53,4.33,4.59,6.45.01.03.03.06.04.09,4.57,9.19,1.04,17.6-3.03,22.73-.02.03-.05.06-.07.09-.03-.04-.06-.07-.09-.11-1.21-1.45-2.74-3.16-4.14-4.73-1.44-1.61-2.76-3.06-3.47-3.92-2.1-2.52-8.41-7.71-8.41-7.71-4.76-2.52-2.24-2.24-4.34-3.92-1.72-1.37-1.82-1.65-1.82-2.27,0-.04,0-.09,0-.13,0-.31.06-.78.06-1.53,0-.06,0-.12,0-.18-.01-.94-.11-2.26-.47-4.16-.42-2.18-.69-4.37-.72-6.64,0-.3,0-.6,0-.91.02-1.23.11-2.49.29-3.8.56-4.06,6.3-12.33,9.67-14.57,0,0,5.88-4.76,6.59-5.18s2.06-.93,2.06-.93v-.07s-.04-.18-.04-.18c-.25-1.71-.63-4.58-.7-6.67,0-.07,0-.15,0-.22,0,0,0-.02,0-.03,0-.13,0-.26,0-.38,0-.07,0-.13,0-.2,0-.45.04-.84.09-1.14C38.53,9.26,49.23,1.19,51.53.02c0,0,.02-.01.03-.02-.87,2.6-4.17,11.33-5.16,16.12-.18.85-.28,1.58-.28,2.13,0,.3.03.55.09.73,0,.03.02.05.03.08h-.04c1.62.69,3.43,2.03,4.95,3.92,1.12,1.4,2.38,1.96,2.94,2.94s3.64,4.9,5.04,7.01c0,0,2.66,3.08,4.34,4.34s3.23,3.3,3.64,3.36c.64.09,1.22.54,1.24,1.55Z"/></g></svg>